<svg width="120" height="83" viewBox="0 0 120 83" fill="none" xmlns="http://www.w3.org/2000/svg">
<rect x="23" y="4" width="75" height="75" rx="15" fill="#003DFF"/>
<path fill-rule="evenodd" clip-rule="evenodd" d="M41.1151 32.7674C53.0631 32.7209 65.0108 32.7674 76.9578 32.907C78.4156 33.3112 78.8791 34.195 78.3483 35.5581C77.9864 35.9469 77.5229 36.1795 76.9578 36.2558C65.1133 36.4419 53.2687 36.4419 41.4241 36.2558C40.2525 35.683 39.8921 34.7992 40.3426 33.6047C40.6655 33.3609 40.923 33.0818 41.1151 32.7674Z" fill="#F7F8F8"/>
<path fill-rule="evenodd" clip-rule="evenodd" d="M41.1152 43.3721C53.2692 43.3256 65.4227 43.3721 77.5759 43.5116C78.5245 44.2286 78.7306 45.1124 78.1938 46.1628C78.0316 46.3559 77.8255 46.4954 77.5759 46.5814C65.4224 46.7675 53.2687 46.7675 41.1152 46.5814C39.8962 45.5123 39.8962 44.4426 41.1152 43.3721Z" fill="#FEFEFE"/>
<path fill-rule="evenodd" clip-rule="evenodd" d="M41.1151 53.6977C53.0632 53.6511 65.0108 53.6977 76.9578 53.8372C78.4157 54.2416 78.8791 55.1251 78.3483 56.4884C78.0693 56.8235 77.709 57.0563 77.2668 57.1861C65.2163 57.3722 53.1657 57.3722 41.1151 57.1861C39.8937 56.0237 39.8937 54.8611 41.1151 53.6977Z" fill="#F8F8F9"/>
</svg>
