<svg width="126" height="108" viewBox="0 0 126 108" fill="none" xmlns="http://www.w3.org/2000/svg">
<rect x="13" y="3" width="100" height="100" rx="30" fill="#005DFF"/>
<g clip-path="url(#clip0_43_423)">
<path fill-rule="evenodd" clip-rule="evenodd" d="M40.9307 27.9717C43.0204 27.9717 45.1101 27.9717 47.1998 27.9717C47.8065 28.0505 48.3671 28.2762 48.8817 28.6489C48.8981 28.7362 48.9491 28.7739 49.0346 28.7617C49.2252 28.8857 49.395 29.0362 49.5443 29.2132C49.5684 29.2926 49.6194 29.3302 49.6972 29.3261C49.7093 29.4336 49.7603 29.5088 49.8501 29.5518C49.8464 29.638 49.8804 29.6944 49.9521 29.7211C49.9483 29.8073 49.9823 29.8637 50.054 29.8904C50.1589 30.066 50.2524 30.2541 50.3343 30.4547C50.4781 30.9224 50.614 31.3926 50.7421 31.8656C50.9296 33.1029 51.091 34.3444 51.2263 35.5902C51.2263 35.6466 51.2263 35.7031 51.2263 35.7595C62.2354 35.7595 73.2446 35.7595 84.2538 35.7595C85.065 35.8081 85.8125 36.0715 86.4964 36.5496C86.5237 36.6594 86.5916 36.7158 86.7003 36.7189C86.8848 36.8291 87.0377 36.9795 87.159 37.1703C87.1711 37.2778 87.2221 37.3531 87.3119 37.3961C87.5058 37.5983 87.6502 37.8428 87.7451 38.1297C87.8452 38.4694 87.9217 38.808 87.9745 39.1455C87.9745 39.3148 87.9745 39.4841 87.9745 39.6534C87.9314 40.2015 87.8379 40.747 87.6942 41.29C86.4779 45.0856 85.2716 48.8854 84.0754 52.6895C83.7066 53.9871 83.0865 55.1064 82.2151 56.0473C81.4864 56.695 80.6539 57.0618 79.7176 57.1478C71.4777 57.1478 63.2378 57.1478 54.9979 57.1478C54.9859 57.2206 55.0028 57.277 55.0489 57.3171C55.1781 57.9685 55.28 58.6269 55.3547 59.2922C63.2716 59.405 71.2057 59.4426 79.157 59.4051C79.7602 59.4075 80.3208 59.5768 80.8389 59.913C80.8662 60.0228 80.9341 60.0792 81.0428 60.0823C81.2444 60.2114 81.4143 60.3807 81.5525 60.5902C81.5487 60.6764 81.5827 60.7328 81.6544 60.7595C81.6507 60.8457 81.6847 60.9021 81.7563 60.9288C81.7526 61.015 81.7866 61.0714 81.8583 61.0981C81.938 61.2115 81.989 61.3432 82.0112 61.4931C82.0066 61.6428 82.0405 61.7744 82.1131 61.8882C82.3709 63.2355 82.1416 64.477 81.425 65.6128C80.7981 66.3492 80.0251 66.7066 79.106 66.685C78.8675 66.6756 78.6297 66.6851 78.3924 66.7132C78.4202 66.7537 78.4542 66.7819 78.4944 66.7979C78.8459 67.0364 79.1518 67.3373 79.4118 67.7008C79.4239 67.8083 79.4749 67.8835 79.5647 67.9265C79.6326 67.9642 79.6836 68.0206 79.7176 68.0958C79.7139 68.182 79.7479 68.2384 79.8195 68.2651C79.9239 68.3808 80.0088 68.5125 80.0744 68.6602C80.0707 68.7463 80.1047 68.8028 80.1763 68.8295C80.219 68.8488 80.2361 68.8864 80.2273 68.9423C80.2236 69.0285 80.2576 69.0849 80.3292 69.1116C80.4687 69.3082 80.5536 69.5339 80.5841 69.7888C80.5795 69.9385 80.6134 70.0702 80.686 70.1839C81.2882 73.129 80.4558 75.4334 78.1886 77.097C77.4758 77.5198 76.7283 77.8114 75.9459 77.9717C75.4363 77.9717 74.9266 77.9717 74.4169 77.9717C74.304 77.9283 74.1851 77.8907 74.0601 77.8588C73.9574 77.7785 73.8385 77.7409 73.7033 77.7459C73.6693 77.7459 73.6354 77.7459 73.6014 77.7459C73.5436 77.6493 73.4586 77.6116 73.3466 77.6331C73.0593 77.5303 72.7875 77.3986 72.5311 77.238C72.507 77.1587 72.456 77.1211 72.3782 77.1252C72.3276 77.1349 72.2937 77.116 72.2762 77.0687C72.2521 76.9894 72.2011 76.9518 72.1233 76.9559C72.0455 76.96 71.9945 76.9224 71.9704 76.843C71.9463 76.7637 71.8953 76.726 71.8175 76.7301C71.7787 76.6307 71.7107 76.5743 71.6136 76.5608C71.5796 76.5608 71.5627 76.5421 71.5627 76.5044C71.5238 76.405 71.4558 76.3485 71.3588 76.3351C69.7365 74.5496 69.2183 72.4239 69.8043 69.9581C69.935 69.6065 70.0794 69.2679 70.2375 68.9423C70.3091 68.9156 70.3431 68.8592 70.3394 68.773C70.3307 68.7171 70.3477 68.6795 70.3904 68.6602C70.4621 68.6335 70.496 68.577 70.4923 68.4909C70.5696 68.3197 70.6715 68.1692 70.7981 68.0394C70.8879 67.9964 70.9389 67.9211 70.951 67.8137C71.053 67.6632 71.1719 67.5315 71.3078 67.4186C71.4098 67.3434 71.4947 67.2493 71.5627 67.1365C71.5627 67.0988 71.5796 67.08 71.6136 67.08C71.7283 67.0473 71.8132 66.9721 71.8685 66.8543C71.8685 66.8167 71.8854 66.7979 71.9194 66.7979C71.9835 66.8001 72.0344 66.7719 72.0723 66.7132C67.5192 66.6756 62.966 66.6756 58.4128 66.7132C58.4405 66.7537 58.4745 66.7819 58.5148 66.7979C58.815 66.9795 59.0698 67.224 59.2793 67.5315C59.2756 67.6177 59.3096 67.6741 59.3812 67.7008C59.4492 67.7384 59.5001 67.7949 59.5341 67.8701C59.5304 67.9563 59.5644 68.0127 59.6361 68.0394C59.7259 68.0824 59.7768 68.1577 59.789 68.2651C59.7852 68.3513 59.8192 68.4077 59.8909 68.4344C59.8872 68.5206 59.9212 68.577 59.9928 68.6037C61.0462 70.6115 61.0716 72.6431 60.0693 74.6985C59.1006 76.5105 57.665 77.5545 55.7625 77.8306C54.7825 77.947 53.8311 77.8153 52.9082 77.4356C52.6337 77.3027 52.3788 77.1428 52.1437 76.9559C52.1196 76.8765 52.0686 76.8389 51.9908 76.843C51.9667 76.7637 51.9157 76.726 51.8379 76.7301C51.7408 76.7167 51.6729 76.6603 51.634 76.5608C51.6099 76.4815 51.5589 76.4439 51.4811 76.448C51.4301 76.4292 51.3961 76.3915 51.3792 76.3351C51.3403 76.2357 51.2723 76.1792 51.1753 76.1658C50.9237 75.9467 50.7198 75.6834 50.5637 75.3757C50.5609 75.2554 50.51 75.1802 50.4108 75.15C50.3649 75.1054 50.3309 75.049 50.3088 74.9807C50.3198 74.886 50.2858 74.8295 50.2069 74.8114C49.2841 72.9199 49.2076 70.9824 49.9775 68.9988C50.0552 68.8634 50.1317 68.7318 50.2069 68.6037C50.2786 68.577 50.3126 68.5206 50.3088 68.4344C50.3805 68.4077 50.4145 68.3513 50.4108 68.2651C50.4229 68.1577 50.4739 68.0824 50.5637 68.0394C50.6353 68.0127 50.6693 67.9563 50.6656 67.8701C50.6996 67.7949 50.7506 67.7384 50.8185 67.7008C50.9083 67.6578 50.9593 67.5825 50.9714 67.4751C50.9884 67.4186 51.0224 67.381 51.0734 67.3622C51.188 67.3295 51.2729 67.2542 51.3282 67.1365C51.3282 67.0988 51.3452 67.08 51.3792 67.08C51.4762 67.0666 51.5442 67.0102 51.5831 66.9107C51.6609 66.9149 51.7118 66.8772 51.736 66.7979C51.833 66.7844 51.901 66.728 51.9398 66.6286C51.9629 66.5745 51.9969 66.5274 52.0418 66.4875C51.5738 66.3157 51.166 66.043 50.8185 65.6692C50.7944 65.5899 50.7434 65.5522 50.6656 65.5563C50.3623 65.2599 50.1075 64.9213 49.9011 64.5405C49.8983 64.4202 49.8474 64.345 49.7482 64.3148C49.7312 64.2772 49.7142 64.2396 49.6972 64.2019C49.7082 64.1072 49.6742 64.0507 49.5953 64.0326C49.0789 63.095 48.7476 62.0792 48.6014 60.9852C47.1794 52.8588 45.7608 44.7324 44.3455 36.606C43.275 36.6154 42.2047 36.606 41.1345 36.5778C40.6986 36.5331 40.3078 36.3732 39.9623 36.0981C39.9381 36.0187 39.8872 35.9811 39.8093 35.9852C39.7754 35.9852 39.7584 35.9664 39.7584 35.9288C39.7343 35.8494 39.6833 35.8118 39.6055 35.8159C39.5035 35.7407 39.4186 35.6466 39.3506 35.5338C39.3118 35.4343 39.2438 35.3779 39.1468 35.3645C38.9038 35.1235 38.7084 34.8414 38.5606 34.518C38.4247 34.1417 38.2888 33.7655 38.1529 33.3893C38.0955 33.0989 38.0361 32.8167 37.9745 32.5428C37.9745 32.0161 37.9745 31.4894 37.9745 30.9627C38.0501 30.5158 38.203 30.102 38.4332 29.7211C38.5049 29.6944 38.5389 29.638 38.5351 29.5518C38.5472 29.4443 38.5982 29.3691 38.688 29.3261C38.7779 29.2831 38.8288 29.2078 38.841 29.1003C38.8579 29.0439 38.8919 29.0063 38.9429 28.9875C39.04 28.9741 39.1079 28.9176 39.1468 28.8182C39.2246 28.8223 39.2756 28.7847 39.2997 28.7053C39.7981 28.3352 40.3418 28.0907 40.9307 27.9717ZM47.7604 30.9062C47.7993 31.0057 47.8673 31.0621 47.9643 31.0755C48.1966 31.5946 48.375 32.1402 48.4995 32.7121C48.6985 34.236 48.9024 35.7597 49.1111 37.2832C49.1679 37.5615 49.2953 37.7872 49.4933 37.9604C49.5175 38.0397 49.5684 38.0774 49.6463 38.0733C49.7734 38.1982 49.9263 38.2641 50.105 38.2708C61.42 38.2896 72.7349 38.3084 84.0499 38.3272C84.4862 38.3722 84.8939 38.5133 85.2732 38.7505C85.3241 38.8445 85.3921 38.9198 85.477 38.9762C85.6534 39.3358 85.6789 39.712 85.5535 40.1049C85.3629 40.7472 85.1676 41.3868 84.9674 42.0236C84.9145 42.1043 84.8805 42.1984 84.8654 42.3058C84.7705 42.5835 84.6856 42.8656 84.6106 43.1523C84.5577 43.233 84.5237 43.327 84.5086 43.4344C84.3797 43.825 84.2608 44.22 84.1519 44.6195C84.099 44.7002 84.065 44.7943 84.0499 44.9017C83.7681 45.7625 83.4963 46.6278 83.2344 47.4976C83.1816 47.5783 83.1476 47.6724 83.1325 47.7798C82.9086 48.4295 82.7047 49.0879 82.5209 49.755C82.468 49.8357 82.434 49.9298 82.4189 50.0371C82.4189 50.0559 82.4189 50.0748 82.4189 50.0936C82.3661 50.1743 82.3321 50.2684 82.317 50.3757C82.0316 51.4842 81.6323 52.5376 81.1192 53.536C81.0002 53.7146 80.8728 53.8839 80.737 54.0439C80.6591 54.0398 80.6082 54.0774 80.5841 54.1568C80.2701 54.3699 79.9302 54.511 79.5647 54.58C70.8831 54.5988 62.2015 54.6177 53.5198 54.6365C53.3147 54.6468 53.1448 54.7314 53.0102 54.8904C52.9323 54.8863 52.8814 54.9239 52.8573 55.0033C52.7856 55.03 52.7516 55.0864 52.7553 55.1726C52.5859 55.3743 52.501 55.6189 52.5005 55.9062C52.7583 57.6002 53.0216 59.2932 53.2905 60.9852C53.4454 61.4955 53.7598 61.8059 54.2334 61.9164C62.5753 61.9352 70.917 61.954 79.2589 61.9728C79.4012 62.0034 79.5371 62.0505 79.6666 62.1139C79.7006 62.1891 79.7516 62.2456 79.8195 62.2832C79.9608 62.8508 79.9013 63.3963 79.6412 63.9198C79.5904 63.9517 79.548 63.9893 79.5137 64.0326C79.3512 64.0528 79.1983 64.0905 79.055 64.1455C70.4583 64.1549 61.8616 64.1455 53.265 64.1173C53.0386 64.0875 52.8177 64.031 52.6024 63.948C52.4378 63.7933 52.268 63.6522 52.0927 63.5247C52.0965 63.4386 52.0625 63.3821 51.9908 63.3554C51.9177 63.2117 51.8328 63.08 51.736 62.9604C51.7397 62.8742 51.7057 62.8178 51.634 62.7911C51.4741 62.399 51.3127 62.004 51.1498 61.606C51.0398 61.1378 50.9379 60.6675 50.844 60.1952C49.3724 51.7663 47.8944 43.3389 46.4098 34.913C46.2654 34.5274 46.019 34.2546 45.6707 34.0947C44.3286 34.0759 42.9864 34.0571 41.6442 34.0383C41.4025 34.0533 41.1986 33.9686 41.0326 33.7843C40.9307 33.6338 40.8117 33.5022 40.6758 33.3893C40.5606 33.0724 40.4501 32.7526 40.3445 32.4299C40.202 31.8938 40.253 31.3859 40.4974 30.9062C40.6827 30.7801 40.8781 30.6767 41.0836 30.5958C43.0713 30.5582 45.0591 30.5582 47.0469 30.5958C47.3032 30.6533 47.5411 30.7568 47.7604 30.9062ZM55.9663 68.2087C56.069 68.2891 56.1879 68.3266 56.3231 68.3216C56.4665 68.4102 56.6194 68.4854 56.7818 68.5473C56.8059 68.6266 56.8569 68.6643 56.9347 68.6602C57.3602 68.9997 57.717 69.4135 58.0051 69.9017C58.0271 69.97 58.0611 70.0264 58.107 70.071C58.6101 71.2374 58.5761 72.3849 58.0051 73.5134C57.9334 73.5401 57.8994 73.5966 57.9031 73.6827C57.8315 73.7094 57.7975 73.7659 57.8012 73.852C57.6667 74.0199 57.5308 74.1892 57.3934 74.3599C57.2964 74.3734 57.2284 74.4298 57.1896 74.5292C57.1117 74.5251 57.0608 74.5628 57.0367 74.6421C55.8562 75.4634 54.65 75.5198 53.4179 74.8114C53.3776 74.7606 53.3267 74.7229 53.265 74.6985C53.0781 74.548 52.8913 74.3976 52.7044 74.2471C52.6922 74.1396 52.6413 74.0643 52.5514 74.0213C52.4952 73.9147 52.4272 73.8207 52.3476 73.7392C52.3513 73.653 52.3173 73.5966 52.2456 73.5699C52.1745 73.356 52.0896 73.1491 51.9908 72.9491C51.9757 72.8417 51.9417 72.7476 51.8889 72.6669C51.5575 70.4307 52.356 68.9541 54.2844 68.2369C54.8439 68.1352 55.4045 68.1258 55.9663 68.2087ZM77.0672 68.773C77.1061 68.8725 77.1741 68.9289 77.2711 68.9423C77.5104 69.226 77.7482 69.5081 77.9847 69.7888C78.0115 69.8865 78.0625 69.9617 78.1376 70.0146C78.1546 70.0522 78.1716 70.0898 78.1886 70.1274C78.2106 70.1957 78.2446 70.2522 78.2905 70.2967C78.6973 71.3562 78.6804 72.4096 78.2395 73.457C78.1679 73.4837 78.1339 73.5401 78.1376 73.6263C78.0659 73.653 78.0319 73.7094 78.0357 73.7956C77.9269 73.8854 77.842 73.9983 77.7808 74.1342C77.691 74.1772 77.64 74.2525 77.6279 74.3599C77.5769 74.3787 77.5429 74.4164 77.526 74.4728C77.4289 74.4862 77.3609 74.5427 77.3221 74.6421C75.8375 75.7344 74.3934 75.678 72.9898 74.4728C72.9388 74.3787 72.8709 74.3035 72.7859 74.2471C72.7004 74.132 72.6155 74.0191 72.5311 73.9085C72.5348 73.8223 72.5008 73.7659 72.4291 73.7392C71.5271 71.8923 71.799 70.284 73.2446 68.9141C74.4923 68.0975 75.7665 68.0504 77.0672 68.773Z" fill="white"/>
<path fill-rule="evenodd" clip-rule="evenodd" d="M48.8817 28.6489C48.9434 28.6733 48.9944 28.7109 49.0346 28.7618C48.949 28.7739 48.8981 28.7363 48.8817 28.6489Z" fill="#777777"/>
<path fill-rule="evenodd" clip-rule="evenodd" d="M39.2996 28.7054C39.2755 28.7847 39.2246 28.8224 39.1467 28.8182C39.1708 28.7389 39.2218 28.7013 39.2996 28.7054Z" fill="#878787"/>
<path fill-rule="evenodd" clip-rule="evenodd" d="M39.1467 28.8184C39.1079 28.9178 39.0399 28.9743 38.9429 28.9877C38.9817 28.8882 39.0497 28.8318 39.1467 28.8184Z" fill="#818181"/>
<path fill-rule="evenodd" clip-rule="evenodd" d="M38.841 29.1003C38.8289 29.2078 38.7779 29.2831 38.6881 29.3261C38.7002 29.2186 38.7512 29.1434 38.841 29.1003Z" fill="#888888"/>
<path fill-rule="evenodd" clip-rule="evenodd" d="M49.5443 29.2134C49.6221 29.2093 49.6731 29.2469 49.6972 29.3263C49.6194 29.3304 49.5684 29.2928 49.5443 29.2134Z" fill="#C3C3C3"/>
<path fill-rule="evenodd" clip-rule="evenodd" d="M49.6973 29.3262C49.7871 29.3692 49.838 29.4444 49.8502 29.5519C49.7604 29.5089 49.7094 29.4336 49.6973 29.3262Z" fill="#A2A2A2"/>
<path fill-rule="evenodd" clip-rule="evenodd" d="M38.5352 29.552C38.5389 29.6382 38.5049 29.6946 38.4333 29.7213C38.4295 29.6351 38.4635 29.5787 38.5352 29.552Z" fill="#878787"/>
<path fill-rule="evenodd" clip-rule="evenodd" d="M49.8501 29.552C49.9218 29.5787 49.9558 29.6351 49.9521 29.7213C49.8804 29.6946 49.8464 29.6382 49.8501 29.552Z" fill="#898989"/>
<path fill-rule="evenodd" clip-rule="evenodd" d="M49.9521 29.7212C50.0237 29.7479 50.0577 29.8043 50.054 29.8905C49.9823 29.8638 49.9483 29.8074 49.9521 29.7212Z" fill="#A1A1A1"/>
<path fill-rule="evenodd" clip-rule="evenodd" d="M47.7605 30.9062C47.8575 30.9197 47.9255 30.9761 47.9644 31.0756C47.8673 31.0621 47.7993 31.0057 47.7605 30.9062Z" fill="#7F7F7F"/>
<path fill-rule="evenodd" clip-rule="evenodd" d="M40.6758 33.3894C40.8117 33.5023 40.9306 33.6339 41.0326 33.7844C40.8627 33.7092 40.7437 33.5775 40.6758 33.3894Z" fill="#A1A1A1"/>
<path fill-rule="evenodd" clip-rule="evenodd" d="M39.1467 35.3645C39.2438 35.3779 39.3117 35.4344 39.3506 35.5338C39.2535 35.5204 39.1856 35.4639 39.1467 35.3645Z" fill="#A2A2A2"/>
<path fill-rule="evenodd" clip-rule="evenodd" d="M51.2263 35.5903C62.2334 35.6843 73.2426 35.7407 84.2538 35.7596C73.2447 35.7596 62.2355 35.7596 51.2263 35.7596C51.2263 35.7032 51.2263 35.6468 51.2263 35.5903Z" fill="#242424"/>
<path fill-rule="evenodd" clip-rule="evenodd" d="M39.6055 35.816C39.6833 35.8119 39.7343 35.8495 39.7584 35.9288C39.6806 35.933 39.6296 35.8953 39.6055 35.816Z" fill="#878787"/>
<path fill-rule="evenodd" clip-rule="evenodd" d="M39.8093 35.9854C39.8871 35.9813 39.9381 36.0189 39.9622 36.0983C39.8844 36.1024 39.8334 36.0648 39.8093 35.9854Z" fill="#8D8D8D"/>
<path fill-rule="evenodd" clip-rule="evenodd" d="M86.4965 36.5496C86.5846 36.5792 86.6526 36.6357 86.7003 36.7189C86.5917 36.7158 86.5237 36.6594 86.4965 36.5496Z" fill="#808080"/>
<path fill-rule="evenodd" clip-rule="evenodd" d="M87.1591 37.1704C87.2489 37.2134 87.2998 37.2887 87.312 37.3961C87.2222 37.3531 87.1712 37.2779 87.1591 37.1704Z" fill="#828282"/>
<path fill-rule="evenodd" clip-rule="evenodd" d="M49.4934 37.9605C49.5712 37.9564 49.6222 37.994 49.6463 38.0734C49.5685 38.0775 49.5175 38.0399 49.4934 37.9605Z" fill="#979797"/>
<path fill-rule="evenodd" clip-rule="evenodd" d="M85.2732 38.7505C85.3921 38.7693 85.4601 38.8446 85.4771 38.9762C85.3921 38.9198 85.3242 38.8446 85.2732 38.7505Z" fill="#929292"/>
<path fill-rule="evenodd" clip-rule="evenodd" d="M84.9674 42.0237C84.9868 42.1477 84.9528 42.2418 84.8655 42.3058C84.8806 42.1985 84.9146 42.1044 84.9674 42.0237Z" fill="#767676"/>
<path fill-rule="evenodd" clip-rule="evenodd" d="M84.6106 43.1523C84.63 43.2764 84.596 43.3705 84.5087 43.4345C84.5238 43.3271 84.5577 43.233 84.6106 43.1523Z" fill="#7F7F7F"/>
<path fill-rule="evenodd" clip-rule="evenodd" d="M84.1519 44.6196C84.1712 44.7437 84.1372 44.8377 84.0499 44.9018C84.065 44.7944 84.099 44.7003 84.1519 44.6196Z" fill="#7B7B7B"/>
<path fill-rule="evenodd" clip-rule="evenodd" d="M83.2345 47.4978C83.2539 47.6218 83.2199 47.7159 83.1326 47.78C83.1477 47.6726 83.1817 47.5785 83.2345 47.4978Z" fill="#787878"/>
<path fill-rule="evenodd" clip-rule="evenodd" d="M82.5209 49.7551C82.5403 49.8792 82.5063 49.9732 82.4189 50.0373C82.434 49.9299 82.468 49.8358 82.5209 49.7551Z" fill="#7F7F7F"/>
<path fill-rule="evenodd" clip-rule="evenodd" d="M82.419 50.0938C82.4383 50.2178 82.4043 50.3119 82.317 50.3759C82.3321 50.2685 82.3661 50.1744 82.419 50.0938Z" fill="#767676"/>
<path fill-rule="evenodd" clip-rule="evenodd" d="M80.737 54.044C80.7129 54.1234 80.6619 54.161 80.5841 54.1569C80.6082 54.0775 80.6592 54.0399 80.737 54.044Z" fill="#868686"/>
<path fill-rule="evenodd" clip-rule="evenodd" d="M53.0102 54.8904C52.9861 54.9698 52.9351 55.0074 52.8573 55.0033C52.8814 54.924 52.9324 54.8863 53.0102 54.8904Z" fill="#797979"/>
<path fill-rule="evenodd" clip-rule="evenodd" d="M52.8573 55.0034C52.8611 55.0896 52.8271 55.146 52.7554 55.1727C52.7517 55.0865 52.7857 55.0301 52.8573 55.0034Z" fill="#848484"/>
<path fill-rule="evenodd" clip-rule="evenodd" d="M79.7176 57.1479C71.486 57.1668 63.2631 57.2232 55.0489 57.3172C55.0028 57.2772 54.9858 57.2208 54.9979 57.1479C63.2378 57.1479 71.4777 57.1479 79.7176 57.1479Z" fill="#343434"/>
<path fill-rule="evenodd" clip-rule="evenodd" d="M55.3547 59.2922C63.2938 59.3298 71.2279 59.3674 79.157 59.4051C71.2057 59.4426 63.2717 59.405 55.3547 59.2922Z" fill="#AAAAAA"/>
<path fill-rule="evenodd" clip-rule="evenodd" d="M80.839 59.9131C80.9272 59.9428 80.9952 59.9992 81.0429 60.0824C80.9342 60.0793 80.8663 60.0229 80.839 59.9131Z" fill="#848484"/>
<path fill-rule="evenodd" clip-rule="evenodd" d="M81.5525 60.5903C81.6242 60.617 81.6582 60.6735 81.6545 60.7596C81.5828 60.7329 81.5488 60.6765 81.5525 60.5903Z" fill="#9E9E9E"/>
<path fill-rule="evenodd" clip-rule="evenodd" d="M81.6545 60.7595C81.7261 60.7862 81.7601 60.8426 81.7564 60.9288C81.6847 60.9021 81.6507 60.8457 81.6545 60.7595Z" fill="#858585"/>
<path fill-rule="evenodd" clip-rule="evenodd" d="M81.7564 60.929C81.828 60.9556 81.862 61.0121 81.8583 61.0983C81.7867 61.0716 81.7527 61.0151 81.7564 60.929Z" fill="#A5A5A5"/>
<path fill-rule="evenodd" clip-rule="evenodd" d="M82.0112 61.4932C82.0837 61.6069 82.1177 61.7385 82.1131 61.8882C82.0405 61.7745 82.0066 61.6428 82.0112 61.4932Z" fill="#797979"/>
<path fill-rule="evenodd" clip-rule="evenodd" d="M79.6666 62.114C79.7686 62.114 79.8195 62.1704 79.8195 62.2833C79.7516 62.2457 79.7006 62.1892 79.6666 62.114Z" fill="#A8A8A8"/>
<path fill-rule="evenodd" clip-rule="evenodd" d="M51.6341 62.7913C51.7057 62.818 51.7397 62.8744 51.736 62.9606C51.6643 62.9339 51.6303 62.8774 51.6341 62.7913Z" fill="#9C9C9C"/>
<path fill-rule="evenodd" clip-rule="evenodd" d="M51.9909 63.3555C52.0625 63.3822 52.0965 63.4386 52.0928 63.5248C52.0212 63.4981 51.9872 63.4416 51.9909 63.3555Z" fill="#888888"/>
<path fill-rule="evenodd" clip-rule="evenodd" d="M49.5953 64.0327C49.6742 64.0508 49.7082 64.1073 49.6973 64.202C49.6514 64.1574 49.6174 64.101 49.5953 64.0327Z" fill="#797979"/>
<path fill-rule="evenodd" clip-rule="evenodd" d="M79.5138 64.0327C79.3801 64.1323 79.2272 64.17 79.0551 64.1456C79.1983 64.0906 79.3512 64.0529 79.5138 64.0327Z" fill="#707070"/>
<path fill-rule="evenodd" clip-rule="evenodd" d="M49.7482 64.3149C49.8474 64.3451 49.8983 64.4204 49.9011 64.5407C49.8259 64.4879 49.775 64.4126 49.7482 64.3149Z" fill="#848484"/>
<path fill-rule="evenodd" clip-rule="evenodd" d="M50.6656 65.5565C50.7435 65.5523 50.7944 65.59 50.8186 65.6693C50.7407 65.6734 50.6898 65.6358 50.6656 65.5565Z" fill="#969696"/>
<path fill-rule="evenodd" clip-rule="evenodd" d="M51.9398 66.6287C51.901 66.7281 51.833 66.7845 51.736 66.798C51.7748 66.6985 51.8428 66.6421 51.9398 66.6287Z" fill="#7C7C7C"/>
<path fill-rule="evenodd" clip-rule="evenodd" d="M71.9195 66.7979C67.4512 66.7227 62.983 66.7227 58.5148 66.7979C58.4746 66.782 58.4406 66.7538 58.4128 66.7133C62.966 66.6756 67.5192 66.6756 72.0724 66.7133C72.0345 66.7719 71.9835 66.8001 71.9195 66.7979Z" fill="#CBCBCB"/>
<path fill-rule="evenodd" clip-rule="evenodd" d="M79.106 66.6851C78.9021 66.7228 78.6983 66.7604 78.4944 66.798C78.4542 66.782 78.4202 66.7538 78.3925 66.7134C78.6297 66.6852 78.8675 66.6758 79.106 66.6851Z" fill="#D1D1D1"/>
<path fill-rule="evenodd" clip-rule="evenodd" d="M51.736 66.7979C51.7119 66.8773 51.661 66.9149 51.5831 66.9108C51.6072 66.8314 51.6582 66.7938 51.736 66.7979Z" fill="#767676"/>
<path fill-rule="evenodd" clip-rule="evenodd" d="M51.583 66.9109C51.5442 67.0103 51.4762 67.0668 51.3792 67.0802C51.418 66.9808 51.486 66.9243 51.583 66.9109Z" fill="#777777"/>
<path fill-rule="evenodd" clip-rule="evenodd" d="M71.8685 66.8545C71.8132 66.9723 71.7283 67.0475 71.6136 67.0802C71.6689 66.9624 71.7539 66.8872 71.8685 66.8545Z" fill="#575757"/>
<path fill-rule="evenodd" clip-rule="evenodd" d="M51.3282 67.1365C51.2729 67.2543 51.188 67.3295 51.0734 67.3622C51.1287 67.2444 51.2136 67.1692 51.3282 67.1365Z" fill="#797979"/>
<path fill-rule="evenodd" clip-rule="evenodd" d="M71.5627 67.1365C71.4948 67.2493 71.4098 67.3434 71.3079 67.4186C71.3419 67.2681 71.4268 67.1741 71.5627 67.1365Z" fill="#8F8F8F"/>
<path fill-rule="evenodd" clip-rule="evenodd" d="M50.9715 67.4751C50.9594 67.5825 50.9084 67.6578 50.8186 67.7008C50.8307 67.5934 50.8817 67.5181 50.9715 67.4751Z" fill="#909090"/>
<path fill-rule="evenodd" clip-rule="evenodd" d="M59.2793 67.5315C59.351 67.5582 59.385 67.6146 59.3813 67.7008C59.3096 67.6741 59.2756 67.6177 59.2793 67.5315Z" fill="#909090"/>
<path fill-rule="evenodd" clip-rule="evenodd" d="M79.4119 67.7009C79.5017 67.7439 79.5526 67.8192 79.5648 67.9267C79.475 67.8837 79.424 67.8084 79.4119 67.7009Z" fill="#8F8F8F"/>
<path fill-rule="evenodd" clip-rule="evenodd" d="M70.9511 67.8137C70.939 67.9212 70.888 67.9965 70.7982 68.0395C70.8103 67.932 70.8613 67.8567 70.9511 67.8137Z" fill="#8B8B8B"/>
<path fill-rule="evenodd" clip-rule="evenodd" d="M50.6657 67.8701C50.6694 67.9563 50.6354 68.0127 50.5638 68.0394C50.56 67.9532 50.594 67.8968 50.6657 67.8701Z" fill="#8E8E8E"/>
<path fill-rule="evenodd" clip-rule="evenodd" d="M59.5341 67.8701C59.6058 67.8968 59.6397 67.9532 59.636 68.0394C59.5644 68.0127 59.5304 67.9563 59.5341 67.8701Z" fill="#878787"/>
<path fill-rule="evenodd" clip-rule="evenodd" d="M55.9663 68.2087C56.1015 68.2036 56.2204 68.2412 56.3231 68.3216C56.1879 68.3267 56.069 68.2891 55.9663 68.2087Z" fill="#6D6D6D"/>
<path fill-rule="evenodd" clip-rule="evenodd" d="M79.7177 68.0959C79.7893 68.1226 79.8233 68.1791 79.8196 68.2652C79.748 68.2386 79.714 68.1821 79.7177 68.0959Z" fill="#A2A2A2"/>
<path fill-rule="evenodd" clip-rule="evenodd" d="M50.4108 68.2651C50.4145 68.3513 50.3805 68.4077 50.3089 68.4344C50.3051 68.3483 50.3391 68.2918 50.4108 68.2651Z" fill="#858585"/>
<path fill-rule="evenodd" clip-rule="evenodd" d="M59.789 68.2651C59.8606 68.2918 59.8946 68.3483 59.8909 68.4344C59.8192 68.4077 59.7853 68.3513 59.789 68.2651Z" fill="#7F7F7F"/>
<path fill-rule="evenodd" clip-rule="evenodd" d="M50.3089 68.4346C50.3126 68.5207 50.2786 68.5772 50.2069 68.6039C50.2032 68.5177 50.2372 68.4613 50.3089 68.4346Z" fill="#949494"/>
<path fill-rule="evenodd" clip-rule="evenodd" d="M59.8909 68.4346C59.9626 68.4613 59.9966 68.5177 59.9928 68.6039C59.9212 68.5772 59.8872 68.5207 59.8909 68.4346Z" fill="#909090"/>
<path fill-rule="evenodd" clip-rule="evenodd" d="M56.7819 68.5474C56.8597 68.5433 56.9107 68.5809 56.9348 68.6603C56.8569 68.6644 56.806 68.6268 56.7819 68.5474Z" fill="#9F9F9F"/>
<path fill-rule="evenodd" clip-rule="evenodd" d="M70.4923 68.491C70.4961 68.5771 70.4621 68.6336 70.3904 68.6603C70.3867 68.5741 70.4207 68.5177 70.4923 68.491Z" fill="#9F9F9F"/>
<path fill-rule="evenodd" clip-rule="evenodd" d="M80.0744 68.6602C80.146 68.6868 80.18 68.7433 80.1763 68.8295C80.1046 68.8028 80.0707 68.7463 80.0744 68.6602Z" fill="#A3A3A3"/>
<path fill-rule="evenodd" clip-rule="evenodd" d="M77.0673 68.7732C77.1643 68.7866 77.2323 68.8431 77.2711 68.9425C77.1741 68.9291 77.1061 68.8726 77.0673 68.7732Z" fill="#777777"/>
<path fill-rule="evenodd" clip-rule="evenodd" d="M70.3394 68.7732C70.3431 68.8594 70.3091 68.9158 70.2375 68.9425C70.2337 68.8563 70.2677 68.7999 70.3394 68.7732Z" fill="#9F9F9F"/>
<path fill-rule="evenodd" clip-rule="evenodd" d="M80.2273 68.9424C80.299 68.9691 80.333 69.0255 80.3293 69.1117C80.2576 69.085 80.2236 69.0286 80.2273 68.9424Z" fill="#A3A3A3"/>
<path fill-rule="evenodd" clip-rule="evenodd" d="M77.9847 69.7891C78.0839 69.8193 78.1349 69.8945 78.1376 70.0148C78.0625 69.962 78.0116 69.8867 77.9847 69.7891Z" fill="#7A7A7A"/>
<path fill-rule="evenodd" clip-rule="evenodd" d="M58.0051 69.9019C58.084 69.92 58.118 69.9764 58.1071 70.0712C58.0611 70.0266 58.0271 69.9701 58.0051 69.9019Z" fill="#7E7E7E"/>
<path fill-rule="evenodd" clip-rule="evenodd" d="M80.5841 69.7891C80.6567 69.9028 80.6907 70.0344 80.6861 70.1841C80.6135 70.0704 80.5796 69.9387 80.5841 69.7891Z" fill="#6A6A6A"/>
<path fill-rule="evenodd" clip-rule="evenodd" d="M78.1886 70.1274C78.2675 70.1456 78.3015 70.202 78.2905 70.2967C78.2446 70.2522 78.2106 70.1957 78.1886 70.1274Z" fill="#757575"/>
<path fill-rule="evenodd" clip-rule="evenodd" d="M51.8889 72.667C51.9418 72.7477 51.9758 72.8418 51.9909 72.9492C51.9036 72.8851 51.8696 72.791 51.8889 72.667Z" fill="#757575"/>
<path fill-rule="evenodd" clip-rule="evenodd" d="M78.2395 73.457C78.2433 73.5432 78.2093 73.5996 78.1376 73.6263C78.1339 73.5402 78.1679 73.4837 78.2395 73.457Z" fill="#757575"/>
<path fill-rule="evenodd" clip-rule="evenodd" d="M58.005 73.5134C58.0088 73.5996 57.9748 73.656 57.9031 73.6827C57.8994 73.5966 57.9334 73.5401 58.005 73.5134Z" fill="#969696"/>
<path fill-rule="evenodd" clip-rule="evenodd" d="M52.2456 73.5701C52.3173 73.5968 52.3513 73.6532 52.3476 73.7394C52.2759 73.7127 52.2419 73.6562 52.2456 73.5701Z" fill="#8F8F8F"/>
<path fill-rule="evenodd" clip-rule="evenodd" d="M78.1376 73.6265C78.1413 73.7126 78.1073 73.7691 78.0357 73.7958C78.032 73.7096 78.066 73.6532 78.1376 73.6265Z" fill="#797979"/>
<path fill-rule="evenodd" clip-rule="evenodd" d="M57.9031 73.6829C57.9068 73.769 57.8728 73.8255 57.8012 73.8522C57.7975 73.766 57.8315 73.7096 57.9031 73.6829Z" fill="#8A8A8A"/>
<path fill-rule="evenodd" clip-rule="evenodd" d="M72.4291 73.7393C72.5008 73.766 72.5348 73.8224 72.531 73.9086C72.4594 73.8819 72.4254 73.8254 72.4291 73.7393Z" fill="#959595"/>
<path fill-rule="evenodd" clip-rule="evenodd" d="M52.5515 74.0215C52.6413 74.0645 52.6923 74.1398 52.7044 74.2472C52.6146 74.2042 52.5636 74.1289 52.5515 74.0215Z" fill="#8C8C8C"/>
<path fill-rule="evenodd" clip-rule="evenodd" d="M77.7808 74.1343C77.7687 74.2417 77.7177 74.317 77.6279 74.36C77.6401 74.2526 77.691 74.1773 77.7808 74.1343Z" fill="#818181"/>
<path fill-rule="evenodd" clip-rule="evenodd" d="M72.7859 74.2471C72.8709 74.3035 72.9388 74.3787 72.9898 74.4728C72.8709 74.454 72.8029 74.3787 72.7859 74.2471Z" fill="#999999"/>
<path fill-rule="evenodd" clip-rule="evenodd" d="M57.3934 74.3601C57.3546 74.4595 57.2866 74.516 57.1896 74.5294C57.2284 74.43 57.2964 74.3735 57.3934 74.3601Z" fill="#888888"/>
<path fill-rule="evenodd" clip-rule="evenodd" d="M77.526 74.4729C77.4872 74.5723 77.4192 74.6288 77.3221 74.6422C77.361 74.5428 77.429 74.4863 77.526 74.4729Z" fill="#858585"/>
<path fill-rule="evenodd" clip-rule="evenodd" d="M57.1896 74.5294C57.1655 74.6087 57.1146 74.6463 57.0367 74.6422C57.0609 74.5629 57.1118 74.5252 57.1896 74.5294Z" fill="#8C8C8C"/>
<path fill-rule="evenodd" clip-rule="evenodd" d="M53.265 74.6987C53.3267 74.7231 53.3777 74.7608 53.4179 74.8116C53.3323 74.8237 53.2814 74.7861 53.265 74.6987Z" fill="#787878"/>
<path fill-rule="evenodd" clip-rule="evenodd" d="M50.2069 74.8115C50.2858 74.8296 50.3198 74.8861 50.3088 74.9808C50.2629 74.9362 50.2289 74.8798 50.2069 74.8115Z" fill="#797979"/>
<path fill-rule="evenodd" clip-rule="evenodd" d="M50.4108 75.1501C50.51 75.1803 50.5609 75.2556 50.5637 75.3759C50.4885 75.3231 50.4376 75.2478 50.4108 75.1501Z" fill="#7A7A7A"/>
<path fill-rule="evenodd" clip-rule="evenodd" d="M51.1753 76.166C51.2723 76.1794 51.3403 76.2359 51.3792 76.3353C51.2821 76.3219 51.2141 76.2655 51.1753 76.166Z" fill="#8D8D8D"/>
<path fill-rule="evenodd" clip-rule="evenodd" d="M71.3588 76.3352C71.4558 76.3486 71.5238 76.4051 71.5626 76.5045C71.4656 76.4911 71.3976 76.4346 71.3588 76.3352Z" fill="#8D8D8D"/>
<path fill-rule="evenodd" clip-rule="evenodd" d="M51.4812 76.4481C51.559 76.4439 51.61 76.4816 51.6341 76.5609C51.5563 76.565 51.5053 76.5274 51.4812 76.4481Z" fill="#8B8B8B"/>
<path fill-rule="evenodd" clip-rule="evenodd" d="M71.6136 76.561C71.7107 76.5745 71.7787 76.6309 71.8175 76.7303C71.7205 76.7169 71.6525 76.6605 71.6136 76.561Z" fill="#767676"/>
<path fill-rule="evenodd" clip-rule="evenodd" d="M51.8379 76.7303C51.9157 76.7262 51.9667 76.7638 51.9908 76.8432C51.913 76.8473 51.862 76.8096 51.8379 76.7303Z" fill="#848484"/>
<path fill-rule="evenodd" clip-rule="evenodd" d="M71.8175 76.7303C71.8953 76.7262 71.9463 76.7638 71.9704 76.8432C71.8926 76.8473 71.8416 76.8096 71.8175 76.7303Z" fill="#767676"/>
<path fill-rule="evenodd" clip-rule="evenodd" d="M51.9908 76.8431C52.0687 76.839 52.1196 76.8766 52.1437 76.9559C52.0659 76.9601 52.015 76.9224 51.9908 76.8431Z" fill="#909090"/>
<path fill-rule="evenodd" clip-rule="evenodd" d="M72.1233 76.9559C72.2011 76.9518 72.2521 76.9894 72.2762 77.0687C72.1984 77.0729 72.1474 77.0352 72.1233 76.9559Z" fill="#8A8A8A"/>
<path fill-rule="evenodd" clip-rule="evenodd" d="M72.3782 77.1253C72.456 77.1212 72.507 77.1588 72.5311 77.2382C72.4533 77.2423 72.4023 77.2047 72.3782 77.1253Z" fill="#A7A7A7"/>
<path fill-rule="evenodd" clip-rule="evenodd" d="M73.3466 77.6333C73.4586 77.6118 73.5436 77.6495 73.6014 77.7461C73.5044 77.7294 73.4194 77.6918 73.3466 77.6333Z" fill="#757575"/>
<path fill-rule="evenodd" clip-rule="evenodd" d="M73.7034 77.7461C73.8385 77.741 73.9574 77.7786 74.0601 77.8589C73.925 77.864 73.8061 77.8264 73.7034 77.7461Z" fill="#787878"/>
</g>
<defs>
<clipPath id="clip0_43_423">
<rect width="50" height="50" fill="white" transform="translate(38 28)"/>
</clipPath>
</defs>
</svg>
