<svg width="150" height="150" viewBox="0 0 150 150" fill="none" xmlns="http://www.w3.org/2000/svg">
<g clip-path="url(#clip0_113_4092)">
<path fill-rule="evenodd" clip-rule="evenodd" d="M0 29C0 12.4315 13.4315 -1 30 -1C60 -1 90 -1 120 -1C136.569 -1 150 12.4315 150 29C150 59 150 89 150 119C150 135.569 136.569 149 120 149C90 149 60 149 30 149C13.4315 149 0 135.569 0 119C0 89 0 59 0 29Z" fill="#003DFF"/>
<path fill-rule="evenodd" clip-rule="evenodd" d="M63.208 44.8975C63.3584 44.7 63.5537 44.6268 63.7939 44.6777C63.6382 44.8518 63.4428 44.925 63.208 44.8975Z" fill="#828282"/>
<path fill-rule="evenodd" clip-rule="evenodd" d="M78.0029 44.6045C78.2041 44.5815 78.3995 44.606 78.5889 44.6777C78.2448 45.0249 77.8542 45.0981 77.417 44.8975C77.6292 44.799 77.8245 44.7013 78.0029 44.6045Z" fill="#B9B9B9"/>
<path fill-rule="evenodd" clip-rule="evenodd" d="M80.2002 44.751C80.5639 44.7847 80.6372 44.8824 80.4199 45.0439C80.269 44.9947 80.1958 44.897 80.2002 44.751Z" fill="#969595"/>
<path fill-rule="evenodd" clip-rule="evenodd" d="M72.29 45.7764C72.8889 45.735 72.9621 45.8328 72.5098 46.0693C72.3589 46.0201 72.2856 45.9224 72.29 45.7764Z" fill="#E3E4E4"/>
<path fill-rule="evenodd" clip-rule="evenodd" d="M63.208 44.8975C61.0348 46.0573 58.8375 47.1804 56.6162 48.2666C56.6509 48.0775 56.6021 47.931 56.4697 47.8271C56.4697 47.7294 56.4209 47.6807 56.3232 47.6807C56.3232 47.6319 56.3232 47.583 56.3232 47.5342C58.563 46.5429 60.858 45.664 63.208 44.8975Z" fill="#DEDEDE"/>
<path fill-rule="evenodd" clip-rule="evenodd" d="M69.0674 46.2158C69.6255 46.3995 69.6255 46.546 69.0674 46.6553C69.0674 46.5088 69.0674 46.3623 69.0674 46.2158Z" fill="#D1D0D0"/>
<path fill-rule="evenodd" clip-rule="evenodd" d="M92.7979 46.3623C93.0669 46.3827 93.1157 46.4804 92.9443 46.6553C92.8274 46.5883 92.7787 46.4906 92.7979 46.3623Z" fill="#808080"/>
<path fill-rule="evenodd" clip-rule="evenodd" d="M105.542 46.6553C105.811 46.6756 105.86 46.7733 105.688 46.9482C105.572 46.8813 105.523 46.7836 105.542 46.6553Z" fill="#9A9999"/>
<path fill-rule="evenodd" clip-rule="evenodd" d="M100.562 46.9482C100.831 46.9686 100.879 47.0663 100.708 47.2412C100.591 47.1743 100.542 47.0766 100.562 46.9482Z" fill="#CBCBCB"/>
<path fill-rule="evenodd" clip-rule="evenodd" d="M56.3232 47.6807C56.421 47.6807 56.4697 47.7294 56.4697 47.8271C56.4889 47.9555 56.4401 48.0532 56.3232 48.1201C56.1363 47.9569 56.1363 47.8104 56.3232 47.6807Z" fill="#003DFF"/>
<path fill-rule="evenodd" clip-rule="evenodd" d="M77.5635 46.6553C77.7176 46.6334 77.8641 46.6578 78.0029 46.7285C75.6428 47.7631 73.299 48.7885 70.9717 49.8047C72.9987 48.3854 75.196 47.3357 77.5635 46.6553Z" fill="#D4D5D5"/>
<path fill-rule="evenodd" clip-rule="evenodd" d="M55.5908 47.8271C55.7373 47.8271 55.8838 47.8271 56.0303 47.8271C56.0303 48.0224 56.0303 48.2178 56.0303 48.4131C55.608 48.6142 55.2661 48.5167 55.0049 48.1201C55.1534 47.9481 55.3487 47.8506 55.5908 47.8271Z" fill="#E9E9E9"/>
<path fill-rule="evenodd" clip-rule="evenodd" d="M56.3232 47.5342C56.3232 47.5829 56.3232 47.6319 56.3232 47.6806C56.1363 47.8104 56.1363 47.9569 56.3232 48.1201C56.4401 48.0531 56.4889 47.9554 56.4697 47.8271C56.6021 47.931 56.6509 48.0775 56.6162 48.2666C56.4598 48.4034 56.2645 48.4523 56.0303 48.4131C56.0303 48.2178 56.0303 48.0224 56.0303 47.8271C55.8838 47.8271 55.7373 47.8271 55.5908 47.8271C55.7783 47.6175 56.0225 47.5198 56.3232 47.5342Z" fill="#9E9E9E"/>
<path fill-rule="evenodd" clip-rule="evenodd" d="M68.9209 48.2666C69.093 48.2345 69.2395 48.2833 69.3604 48.4131C69.133 48.6032 68.9865 48.5545 68.9209 48.2666Z" fill="#B5B5B5"/>
<path fill-rule="evenodd" clip-rule="evenodd" d="M55.0049 48.1201C55.2661 48.5167 55.608 48.6142 56.0303 48.4131C55.8497 48.7494 55.5567 48.9448 55.1514 48.999C55.3216 48.4597 55.1996 48.3621 54.7852 48.7061C54.7144 48.5672 54.6901 48.4207 54.7119 48.2666C54.762 48.1439 54.8596 48.0949 55.0049 48.1201Z" fill="#484848"/>
<path fill-rule="evenodd" clip-rule="evenodd" d="M54.7119 48.2666C54.6901 48.4207 54.7144 48.5672 54.7852 48.7061C55.1996 48.3621 55.3216 48.4597 55.1514 48.999C54.7541 49.2173 54.3879 49.1684 54.0527 48.8525C54.0715 48.4818 54.2912 48.2864 54.7119 48.2666Z" fill="#CFCFCF"/>
<path fill-rule="evenodd" clip-rule="evenodd" d="M75.6592 48.4131C75.947 48.4787 75.9958 48.6252 75.8057 48.8525C75.6759 48.7317 75.6271 48.5852 75.6592 48.4131Z" fill="#B6B6B6"/>
<path fill-rule="evenodd" clip-rule="evenodd" d="M92.7979 48.5596C93.3041 48.7113 93.353 48.9555 92.9443 49.292C92.6215 49.1042 92.5726 48.86 92.7979 48.5596Z" fill="#C9C9C9"/>
<path fill-rule="evenodd" clip-rule="evenodd" d="M106.128 48.8525C106.397 48.8729 106.446 48.9706 106.274 49.1455C106.158 49.0786 106.109 48.9809 106.128 48.8525Z" fill="#CACBCB"/>
<path fill-rule="evenodd" clip-rule="evenodd" d="M49.1455 51.6357C49.0478 51.6357 48.9502 51.6357 48.8525 51.6357C50.0389 50.8214 51.2596 50.0402 52.5146 49.292C52.7218 49.4566 52.9415 49.6031 53.1738 49.7314C53.2718 49.3611 53.3938 49.3611 53.54 49.7314C52.1629 50.4163 50.6981 51.0511 49.1455 51.6357Z" fill="#E4E4E4"/>
<path fill-rule="evenodd" clip-rule="evenodd" d="M62.915 49.585C63.1841 49.6053 63.2329 49.703 63.0615 49.8779C62.9446 49.811 62.8959 49.7133 62.915 49.585Z" fill="#8F8E8E"/>
<path fill-rule="evenodd" clip-rule="evenodd" d="M97.1924 49.4385C97.4615 49.4588 97.5103 49.5565 97.3389 49.7314C97.222 49.6645 97.1732 49.5668 97.1924 49.4385Z" fill="#B2B2B2"/>
<path fill-rule="evenodd" clip-rule="evenodd" d="M89.5752 49.7314C89.7293 49.7096 89.8758 49.7339 90.0147 49.8047C89.5078 50.2169 88.9463 50.5342 88.3301 50.7568C88.2293 50.6349 88.2538 50.5374 88.4033 50.4639C88.8527 50.2894 89.2434 50.0452 89.5752 49.7314Z" fill="#BBBBBB"/>
<path fill-rule="evenodd" clip-rule="evenodd" d="M82.9834 51.3428C83.1299 51.3428 83.2764 51.3428 83.4229 51.3428C82.7971 54.6031 81.8206 57.7525 80.4932 60.791C80.5419 60.8643 80.5909 60.9375 80.6396 61.0107C81.9636 60.692 83.2819 60.3501 84.5947 59.9854C85.3666 58.0846 85.977 56.1315 86.4258 54.126C87.5993 53.5034 88.8444 53.064 90.1611 52.8076C90.1841 53.0087 90.1597 53.2042 90.0879 53.3936C89.2368 55.2902 88.4312 57.1945 87.6709 59.1064C88.2533 58.99 88.8393 58.8923 89.4287 58.8135C89.4026 59.2113 89.3294 59.602 89.209 59.9854C88.4659 60.1928 87.709 60.3636 86.9385 60.498C86.69 60.877 86.5436 61.2921 86.499 61.7432C87.1668 61.6437 87.826 61.4972 88.4766 61.3037C88.6607 61.355 88.7096 61.4527 88.623 61.5967C88.3578 61.8959 88.0403 62.1157 87.6709 62.2559C87.1213 62.3235 86.6086 62.4943 86.1328 62.7686C85.4492 64.5264 84.7657 66.2842 84.082 68.042C83.4593 68.4144 82.8489 68.805 82.251 69.2139C82.2022 69.1162 82.1533 69.0186 82.1045 68.9209C82.6027 67.1481 83.0421 65.3659 83.4229 63.5742C82.9124 63.5265 82.4241 63.5997 81.958 63.7939C81.9129 63.4389 81.9618 63.0971 82.1045 62.7686C82.6463 62.6407 83.1833 62.4942 83.7158 62.3291C83.7965 61.9547 83.943 61.6129 84.1553 61.3037C82.8469 61.4741 81.5285 61.7426 80.2002 62.1094C79.7936 62.5479 79.6228 63.0606 79.6875 63.6475C79.899 63.405 80.1677 63.3073 80.4932 63.3545C80.464 63.7148 80.3665 64.0566 80.2002 64.3799C79.7193 64.4807 79.2555 64.6271 78.8086 64.8193C77.6786 67.2313 76.6044 69.6728 75.5859 72.1436C75.0488 72.583 74.5118 73.0225 73.9746 73.4619C74.7828 70.8656 75.4909 68.2289 76.0986 65.5518C74.5216 65.9884 72.9835 66.5254 71.4844 67.1631C70.1474 71.7113 68.7803 76.2523 67.3828 80.7861C66.4794 81.5918 65.5762 82.3975 64.6729 83.2031C64.551 83.3039 64.4534 83.2794 64.3799 83.1299C65.3814 78.2442 66.5045 73.3857 67.749 68.5547C67.7002 68.4814 67.6513 68.4082 67.6025 68.335C67.4073 68.4327 67.2119 68.5302 67.0166 68.6279C67.1161 67.3967 67.3847 66.1759 67.8223 64.9658C68.2129 64.6729 68.6035 64.3799 68.9941 64.0869C69.7702 61.1039 70.6247 58.1498 71.5576 55.2246C75.2742 53.6196 79.0828 52.3257 82.9834 51.3428Z" fill="#F9F9F9"/>
<path fill-rule="evenodd" clip-rule="evenodd" d="M90.8936 50.9033C91.1424 50.8799 91.3866 50.9042 91.626 50.9766C90.3148 51.6254 88.9477 52.0648 87.5244 52.2949C88.6783 51.8706 89.8012 51.4068 90.8936 50.9033Z" fill="#CECECE"/>
<path fill-rule="evenodd" clip-rule="evenodd" d="M48.8525 51.6357C48.9502 51.6357 49.0478 51.6357 49.1455 51.6357C48.8678 51.7794 48.5748 51.9259 48.2666 52.0752C48.0914 52.0245 48.0914 51.9513 48.2666 51.8555C48.449 51.7396 48.6442 51.6664 48.8525 51.6357Z" fill="#7E7E7E"/>
<path fill-rule="evenodd" clip-rule="evenodd" d="M62.1826 50.7568C62.3837 50.7338 62.5792 50.7583 62.7686 50.8301C60.7223 51.8043 58.6715 52.7808 56.6162 53.7598C56.4697 53.8575 56.3232 53.8575 56.1768 53.7598C58.1574 52.6718 60.1594 51.6708 62.1826 50.7568Z" fill="#D9D9D9"/>
<path fill-rule="evenodd" clip-rule="evenodd" d="M111.401 51.7822C111.67 51.8026 111.719 51.9003 111.548 52.0752C111.431 52.0083 111.382 51.9105 111.401 51.7822Z" fill="#EAEBEB"/>
<path fill-rule="evenodd" clip-rule="evenodd" d="M113.599 52.0752C113.868 52.0956 113.917 52.1933 113.745 52.3682C113.628 52.3012 113.579 52.2035 113.599 52.0752Z" fill="#C4C5C5"/>
<path fill-rule="evenodd" clip-rule="evenodd" d="M57.4951 51.6357C57.6962 51.6127 57.8917 51.6372 58.0811 51.709C55.7411 52.6837 53.4949 53.8068 51.3428 55.0781C53.1248 53.4308 55.1755 52.2833 57.4951 51.6357Z" fill="#DADADA"/>
<path fill-rule="evenodd" clip-rule="evenodd" d="M85.6201 52.0752C85.9835 52.2504 85.9835 52.4701 85.6201 52.7344C84.8593 53.0049 84.1512 53.3711 83.4961 53.833C83.5247 53.5042 83.6956 53.2356 84.0088 53.0273C84.5552 52.7061 85.0923 52.3887 85.6201 52.0752Z" fill="#DCDCDC"/>
<path fill-rule="evenodd" clip-rule="evenodd" d="M50.0244 52.3681C50.2409 52.3298 50.4362 52.3785 50.6104 52.5146C50.1095 52.7771 49.5968 53.0213 49.0723 53.247C48.9715 53.1252 48.996 53.0276 49.1455 52.9541C49.448 52.7553 49.741 52.56 50.0244 52.3681Z" fill="#C6C6C6"/>
<path fill-rule="evenodd" clip-rule="evenodd" d="M42.8467 52.2217C43.1219 52.206 43.1707 52.2792 42.9932 52.4414C40.361 53.7328 37.7732 55.0512 35.2295 56.3965C37.5441 54.5802 40.0831 53.1886 42.8467 52.2217Z" fill="#D9D9D9"/>
<path fill-rule="evenodd" clip-rule="evenodd" d="M69.7998 53.3936C69.9463 53.3936 70.0928 53.3936 70.2393 53.3936C70.0184 54.789 69.6766 56.1561 69.2139 57.4951C67.3607 58.2016 65.5541 59.0317 63.7939 59.9854C63.7452 59.9121 63.6962 59.8389 63.6475 59.7656C64.0581 58.4455 64.3753 57.1027 64.5996 55.7373C66.2745 54.7978 68.0079 54.0166 69.7998 53.3936Z" fill="#F8F8F8"/>
<path fill-rule="evenodd" clip-rule="evenodd" d="M96.6064 53.9795C96.8755 53.9999 96.9243 54.0976 96.7529 54.2725C96.636 54.2055 96.5873 54.1078 96.6064 53.9795Z" fill="#B2B2B2"/>
<path fill-rule="evenodd" clip-rule="evenodd" d="M114.478 53.9795C114.747 53.9999 114.795 54.0976 114.624 54.2725C114.507 54.2055 114.458 54.1078 114.478 53.9795Z" fill="#818080"/>
<path fill-rule="evenodd" clip-rule="evenodd" d="M45.4834 55.2979C50.5627 55.2256 52.882 57.7159 52.4414 62.7686C51.8563 65.5501 50.9774 68.2356 49.8047 70.8252C48.6576 73.5587 47.2415 76.1467 45.5566 78.5889C43.4859 80.661 41.1667 82.3945 38.5986 83.7891C37.1247 84.526 35.6599 85.2584 34.2041 85.9863C32.5604 86.586 30.9246 87.1964 29.2969 87.8174C29.4945 86.5863 29.7875 85.3655 30.1758 84.1553C30.2246 83.6181 30.2735 83.0811 30.3223 82.5439C31.6261 81.9624 32.9202 81.352 34.2041 80.7129C33.132 80.8538 32.0578 81.0246 30.9814 81.2256C32.5252 75.9497 34.0876 70.6762 35.6689 65.4053C37.7542 64.7525 39.8049 64.0201 41.8213 63.208C41.8701 63.2568 41.919 63.3057 41.9678 63.3545C40.2123 68.8897 38.3813 74.4072 36.4746 79.9072C36.2626 80.6369 36.1162 81.3693 36.0352 82.1045C36.4039 81.2438 36.7456 80.3648 37.0605 79.4678C39.55 78.3451 41.6008 76.685 43.2129 74.4873C44.8482 71.4123 45.7271 68.1407 45.8496 64.6729C45.7701 63.7071 45.3063 62.9991 44.458 62.5488C42.9866 62.4271 41.5217 62.4759 40.0635 62.6953C37.6594 63.2291 35.2912 63.8883 32.959 64.6729C32.8857 64.6241 32.8125 64.5751 32.7393 64.5264C33.5439 63.7235 34.4716 63.0888 35.5225 62.6221C34.8113 62.4738 34.1521 62.6203 33.5449 63.0615C33.4966 62.4472 33.6186 61.8612 33.9111 61.3037C37.8236 58.9419 42.0716 57.7701 46.6553 57.7881C44.7309 57.0886 42.7778 57.0154 40.7959 57.5684C37.7792 58.3525 34.8984 59.3534 32.1533 60.5713C36.2073 57.8364 40.6506 56.0786 45.4834 55.2979Z" fill="#F9F9F9"/>
<path fill-rule="evenodd" clip-rule="evenodd" d="M108.325 55.4444C108.616 55.442 108.762 55.5885 108.765 55.8838C108.569 56.4698 108.374 56.4698 108.179 55.8838C108.206 55.725 108.255 55.5785 108.325 55.4444Z" fill="#DFDFDF"/>
<path fill-rule="evenodd" clip-rule="evenodd" d="M92.7979 56.3232C93.0246 56.3703 93.1223 56.5167 93.0908 56.7627C92.6883 56.7771 92.5907 56.6306 92.7979 56.3232Z" fill="#6A6969"/>
<path fill-rule="evenodd" clip-rule="evenodd" d="M48.4131 56.3232C50.0279 56.7237 50.8825 57.7491 50.9766 59.3994C50.4602 58.0626 49.6058 57.0372 48.4131 56.3232Z" fill="#003DFF"/>
<path fill-rule="evenodd" clip-rule="evenodd" d="M48.7061 58.374C48.852 58.3614 48.974 58.4103 49.0723 58.5205C49.2154 58.8486 49.2886 59.1904 49.292 59.5459C49.0967 59.5459 48.9013 59.5459 48.7061 59.5459C48.5956 59.1422 48.5956 58.7516 48.7061 58.374Z" fill="#003DFF"/>
<path fill-rule="evenodd" clip-rule="evenodd" d="M78.1494 58.374C78.243 58.4615 78.2918 58.5835 78.2959 58.7402C78.0832 59.7132 77.8392 60.6653 77.5635 61.5967C76.0245 61.9469 74.5107 62.3864 73.0225 62.915C72.9737 62.8663 72.9248 62.8173 72.876 62.7686C73.1102 62.1393 73.3299 61.5045 73.5352 60.8643C73.6501 60.6026 73.8209 60.3829 74.0479 60.2051C75.4406 59.609 76.8079 58.9986 78.1494 58.374Z" fill="#003DFF"/>
<path fill-rule="evenodd" clip-rule="evenodd" d="M57.7881 70.8252C57.6904 70.5322 57.5928 70.2393 57.4951 69.9463C57.4787 69.437 57.2345 69.2172 56.7627 69.2871C56.194 69.9044 55.6813 70.5636 55.2246 71.2647C54.2386 74.4822 53.1889 77.6804 52.0752 80.8594C51.9113 81.1342 51.6671 81.2562 51.3428 81.2256C51.6467 79.6664 52.0619 78.1528 52.5879 76.6846C52.2193 77.129 51.9264 77.6174 51.709 78.1494C51.2755 79.2476 50.9093 80.3707 50.6104 81.5186C49.5747 81.8448 48.525 82.1378 47.4609 82.3975C47.3877 82.3487 47.3145 82.2998 47.2412 82.251C48.8837 76.8536 50.6171 71.4826 52.4414 66.1377C53.0464 63.9672 53.5103 61.77 53.833 59.5459C55.0626 59.492 56.1612 59.8339 57.1289 60.5713C57.2224 60.7338 57.2956 60.9046 57.3486 61.084C56.4794 63.1538 55.8202 65.2778 55.3711 67.4561C56.4132 65.874 57.2676 64.1895 57.9346 62.4024C58.8926 62.423 59.7715 62.716 60.5713 63.2813C60.7982 63.4591 60.969 63.6788 61.084 63.9404C61.0682 64.7575 60.8729 65.5387 60.498 66.2842C59.7423 67.8946 58.839 69.4083 57.7881 70.8252Z" fill="#FAFAFA"/>
<path fill-rule="evenodd" clip-rule="evenodd" d="M91.7725 59.6924C91.9189 59.6924 92.0654 59.6924 92.2119 59.6924C92.2607 60.1318 92.0654 60.3271 91.626 60.2783C91.6162 60.0646 91.6649 59.8693 91.7725 59.6924Z" fill="#DDDDDD"/>
<path fill-rule="evenodd" clip-rule="evenodd" d="M67.749 60.4248C67.9211 60.3927 68.0676 60.4415 68.1885 60.5713C67.0302 63.8845 66.0292 67.2536 65.1855 70.6787C64.9351 71.5339 64.6176 72.364 64.2334 73.169C62.6096 73.8095 60.9983 74.4932 59.3994 75.2197C59.3506 75.1465 59.3017 75.0733 59.2529 75C60.454 71.2456 61.5526 67.4615 62.5488 63.6475C62.6495 63.3446 62.625 63.0516 62.4756 62.7686C64.2311 61.9566 65.9889 61.1754 67.749 60.4248Z" fill="#FAFAFA"/>
<path fill-rule="evenodd" clip-rule="evenodd" d="M101.44 60.5713C101.869 60.6684 101.966 60.9126 101.733 61.3037C101.482 61.1326 101.384 60.8884 101.44 60.5713Z" fill="#C5C6C6"/>
<path fill-rule="evenodd" clip-rule="evenodd" d="M94.1162 61.0107C94.3853 61.0311 94.4341 61.1288 94.2627 61.3037C94.1458 61.2368 94.097 61.1391 94.1162 61.0107Z" fill="#808080"/>
<path fill-rule="evenodd" clip-rule="evenodd" d="M112.134 61.0107C112.403 61.0311 112.452 61.1288 112.28 61.3037C112.163 61.2368 112.115 61.1391 112.134 61.0107Z" fill="#949494"/>
<path fill-rule="evenodd" clip-rule="evenodd" d="M105.249 61.4502C105.506 61.6043 105.604 61.8485 105.542 62.1826C105.396 62.1826 105.249 62.1826 105.103 62.1826C105.083 61.9201 105.132 61.6761 105.249 61.4502Z" fill="#DADBDB"/>
<path fill-rule="evenodd" clip-rule="evenodd" d="M106.714 61.5967C106.983 61.617 107.032 61.7147 106.86 61.8896C106.743 61.8227 106.695 61.725 106.714 61.5967Z" fill="#CCCCCC"/>
<path fill-rule="evenodd" clip-rule="evenodd" d="M50.4639 62.3291C50.6492 62.4776 50.7467 62.6974 50.7568 62.9883C49.8867 68.3622 48.0557 73.367 45.2637 78.0029C45.9413 76.3021 46.6737 74.5932 47.4609 72.876C48.6149 69.8048 49.5916 66.6797 50.3906 63.501C50.4634 63.1134 50.4879 62.7227 50.4639 62.3291Z" fill="#003DFF"/>
<path fill-rule="evenodd" clip-rule="evenodd" d="M120.044 62.7686C120.632 62.7442 121.218 62.7687 121.802 62.8418C120.107 63.4966 118.398 64.0825 116.675 64.5996C117.812 63.9829 118.935 63.3727 120.044 62.7686Z" fill="#DDDDDD"/>
<path fill-rule="evenodd" clip-rule="evenodd" d="M101.147 63.0615C101.366 63.0491 101.513 63.1467 101.587 63.3545C101.309 63.5214 101.163 63.4238 101.147 63.0615Z" fill="#A9A9A9"/>
<path fill-rule="evenodd" clip-rule="evenodd" d="M76.5381 63.501C76.7392 63.478 76.9346 63.5024 77.124 63.5742C76.5875 63.9413 76.0015 64.1366 75.3662 64.1602C75.7469 63.8972 76.1376 63.6775 76.5381 63.501Z" fill="#2B2B2B"/>
<path fill-rule="evenodd" clip-rule="evenodd" d="M96.167 63.501C96.4565 63.6368 96.5052 63.832 96.3135 64.0869C95.9997 63.9497 95.9508 63.7544 96.167 63.501Z" fill="#A8A8A8"/>
<path fill-rule="evenodd" clip-rule="evenodd" d="M98.0713 63.7939C98.3404 63.8143 98.3892 63.912 98.2178 64.0869C98.1009 64.02 98.0521 63.9223 98.0713 63.7939Z" fill="#BBBBBB"/>
<path fill-rule="evenodd" clip-rule="evenodd" d="M98.5107 67.8955C98.4981 67.7496 98.5471 67.6276 98.6572 67.5293C99.3409 67.2851 100.024 67.0411 100.708 66.7969C105.781 65.7146 110.811 64.5428 115.796 63.2812C112.424 64.442 109.005 65.4674 105.542 66.3574C103.701 66.9546 101.895 67.6383 100.122 68.4082C99.5159 68.4584 98.9788 68.2875 98.5107 67.8955Z" fill="#E8E8E8"/>
<path fill-rule="evenodd" clip-rule="evenodd" d="M97.4854 64.9658C97.7544 64.9862 97.8032 65.0839 97.6318 65.2588C97.5149 65.1918 97.4662 65.0941 97.4854 64.9658Z" fill="#999999"/>
<path fill-rule="evenodd" clip-rule="evenodd" d="M113.892 89.4287C113.892 89.331 113.94 89.2822 114.038 89.2822C114.238 89.4804 114.385 89.4315 114.478 89.1357C114.312 88.3906 113.971 87.7314 113.452 87.1582C113.181 87.045 112.985 87.1182 112.866 87.3779C112.817 87.3779 112.769 87.3779 112.72 87.3779C112.434 86.9208 112.117 86.4813 111.768 86.0596C111.743 86.1083 111.719 86.1573 111.694 86.2061C112.347 87.4865 112.981 88.7804 113.599 90.0879C113.517 90.4084 113.321 90.506 113.013 90.3809C111.711 88.5823 110.539 86.7025 109.497 84.7412C109.424 84.5917 109.326 84.5672 109.204 84.668C107.881 87.214 106.489 89.7287 105.029 92.2119C105.027 91.9232 105.076 91.6302 105.176 91.333C106.077 89.2378 106.98 87.1383 107.886 85.0342C107.837 84.9854 107.788 84.9365 107.739 84.8877C106.108 87.6671 104.57 90.4992 103.125 93.3838C101.818 94.1963 100.475 94.9531 99.0967 95.6543C98.9748 95.7551 98.8772 95.7306 98.8037 95.5811C101.585 90.7255 104.271 85.8183 106.86 80.8594C105.667 78.7909 104.618 76.6668 103.711 74.4873C105.042 76.5146 106.409 78.5167 107.812 80.4932C107.837 80.4199 107.861 80.3467 107.886 80.2734C106.374 76.9104 104.64 73.6633 102.686 70.5322C102.588 70.3857 102.588 70.2393 102.686 70.0928C103.594 69.7062 104.522 69.5109 105.469 69.5068C106.363 71.2627 106.485 71.1895 105.835 69.2871C106.132 68.9561 106.474 68.8828 106.86 69.0674C108.105 70.9717 109.351 72.876 110.596 74.7803C112.119 72.1318 113.584 69.4462 114.99 66.7236C115.274 66.2985 115.641 66.1521 116.089 66.2842C114.569 69.0788 113.178 71.9109 111.914 74.7803C113.739 71.7404 115.619 68.7375 117.554 65.7715C118.526 65.5589 119.479 65.2904 120.41 64.9658C117.977 69.5369 115.463 74.0779 112.866 78.5889C114.673 81.5197 116.553 84.4006 118.506 87.2314C118.581 87.783 118.361 87.9294 117.847 87.6709C116.003 84.911 114.123 82.1767 112.207 79.4678C112.111 79.2926 112.038 79.2926 111.987 79.4678C113.679 82.3875 115.388 85.2927 117.114 88.1836C117.076 88.3683 116.979 88.5148 116.821 88.623C116.016 89.0363 115.235 89.4757 114.478 89.9414C114.091 90.016 113.896 89.845 113.892 89.4287Z" fill="#F8F8F8"/>
<path fill-rule="evenodd" clip-rule="evenodd" d="M120.483 66.7236C120.736 66.7739 120.809 66.9204 120.703 67.1631C119.823 68.7309 118.945 70.2935 118.066 71.8506C118.169 71.2501 118.364 70.6642 118.652 70.0928C119.26 68.9751 119.871 67.852 120.483 66.7236Z" fill="#D6D6D6"/>
<path fill-rule="evenodd" clip-rule="evenodd" d="M36.6943 66.5771C36.3974 68.1042 35.9092 69.6179 35.2295 71.1182C35.3295 69.5035 35.8178 67.9898 36.6943 66.5771Z" fill="#003DFF"/>
<path fill-rule="evenodd" clip-rule="evenodd" d="M98.5107 67.8955C98.5518 68.3016 98.4541 68.6678 98.2178 68.9941C96.1792 69.565 94.1771 70.2486 92.2119 71.0449C90.9054 71.3123 89.5871 71.4832 88.2568 71.5576C88.351 71.0467 88.644 70.6805 89.1357 70.459C92.2408 69.5208 95.3659 68.6663 98.5107 67.8955Z" fill="#F2F2F2"/>
<path fill-rule="evenodd" clip-rule="evenodd" d="M59.9854 68.4814C60.1137 68.4623 60.2114 68.511 60.2783 68.6279C59.6372 69.9089 58.7826 71.0319 57.7148 71.9971C57.6171 71.8994 57.6171 71.8018 57.7148 71.7041C58.5038 70.6475 59.2607 69.5733 59.9854 68.4814Z" fill="#DCDCDC"/>
<path fill-rule="evenodd" clip-rule="evenodd" d="M57.4951 69.9463C57.5928 70.2393 57.6904 70.5322 57.7881 70.8252C57.7793 70.9047 57.7305 70.9535 57.6416 70.9717C57.4989 70.6431 57.45 70.3014 57.4951 69.9463Z" fill="#656464"/>
<path fill-rule="evenodd" clip-rule="evenodd" d="M63.9404 70.9717C64.3084 71.0766 64.3084 71.223 63.9404 71.4111C63.7849 71.2756 63.7849 71.1292 63.9404 70.9717Z" fill="#003DFF"/>
<path fill-rule="evenodd" clip-rule="evenodd" d="M87.085 71.1182C87.2802 71.1182 87.4756 71.1182 87.6709 71.1182C87.716 71.4732 87.6671 71.815 87.5244 72.1436C86.9446 72.4263 86.3587 72.6948 85.7666 72.9492C83.4561 73.3925 81.1613 73.9052 78.8818 74.4873C78.0606 74.0464 78.1094 73.6802 79.0283 73.3887C80.4957 73.1256 81.9362 72.7594 83.3496 72.29C83.5497 72.3202 83.745 72.3691 83.9355 72.4365C84.3001 72.1701 84.6664 71.9016 85.0342 71.6309C85.7433 71.4851 86.427 71.3142 87.085 71.1182Z" fill="#F1F1F1"/>
<path fill-rule="evenodd" clip-rule="evenodd" d="M75.0732 71.2646C75.4355 71.3301 75.4599 71.4766 75.1465 71.7041C75.0757 71.5652 75.0514 71.4188 75.0732 71.2646Z" fill="#003DFF"/>
<path fill-rule="evenodd" clip-rule="evenodd" d="M97.6318 71.5576C101.465 71.5081 103.052 73.3636 102.393 77.124C101.935 80.1149 101.398 83.0935 100.781 86.0596C100.082 89.2639 98.8125 92.1936 96.9727 94.8486C94.1867 97.9745 90.7443 99.0731 86.6455 98.1445C84.9573 97.1859 84.3469 95.7454 84.8145 93.8232C85.4956 89.878 86.521 86.0204 87.8906 82.251C90.1449 77.7753 93.392 74.2109 97.6318 71.5576Z" fill="#F9F9F9"/>
<path fill-rule="evenodd" clip-rule="evenodd" d="M105.688 71.5576C106.006 71.5014 106.25 71.5991 106.421 71.8506C106.03 72.0835 105.786 71.9858 105.688 71.5576Z" fill="#343434"/>
<path fill-rule="evenodd" clip-rule="evenodd" d="M35.083 72.4365C35.4561 72.6987 35.4073 72.9428 34.9365 73.1689C34.7678 72.8911 34.8166 72.6469 35.083 72.4365Z" fill="#003DFF"/>
<path fill-rule="evenodd" clip-rule="evenodd" d="M68.1885 72.876C68.2365 75.4538 67.7238 77.944 66.6504 80.3467C67.1556 77.8629 67.6683 75.3727 68.1885 72.876Z" fill="#003DFF"/>
<path fill-rule="evenodd" clip-rule="evenodd" d="M63.3545 74.0479C63.5987 74.0479 63.8427 74.0479 64.0869 74.0479C64.078 74.3543 63.9315 74.574 63.6475 74.707C62.0788 75.2621 60.5407 75.8723 59.0332 76.5381C58.9661 76.1578 59.0881 75.8404 59.3994 75.5859C60.3596 75.0318 61.385 74.69 62.4756 74.5605C62.733 74.3042 63.0259 74.1334 63.3545 74.0479Z" fill="#ECECEC"/>
<path fill-rule="evenodd" clip-rule="evenodd" d="M51.6357 75.0732C52.0112 75.2927 52.0112 75.5369 51.6357 75.8057C51.2798 75.5805 51.2798 75.3363 51.6357 75.0732Z" fill="#003DFF"/>
<path fill-rule="evenodd" clip-rule="evenodd" d="M75.2197 75.3662C75.5279 75.3224 75.8209 75.3712 76.0986 75.5127C76.0217 75.6141 75.924 75.6873 75.8057 75.7324C74.7756 75.9807 73.7502 76.2494 72.7295 76.5381C72.6318 76.4893 72.5342 76.4404 72.4365 76.3916C72.583 76.2696 72.7295 76.1474 72.876 76.0254C73.6679 75.7756 74.4491 75.5559 75.2197 75.3662Z" fill="#E3E3E3"/>
<path fill-rule="evenodd" clip-rule="evenodd" d="M85.1807 86.2061C84.9854 86.2061 84.79 86.2061 84.5947 86.2061C84.5947 86.3525 84.5947 86.499 84.5947 86.6455C84.3624 86.7404 84.1182 86.8137 83.8623 86.8652C84.294 86.8816 84.4893 87.1014 84.4482 87.5244C84.7245 87.7339 84.9687 87.9781 85.1807 88.2568C84.0101 93.3271 80.9829 97.0625 76.0986 99.4629C74.745 100.067 73.3777 100.628 71.9971 101.147C72.5723 97.8706 73.3292 94.6479 74.2676 91.4795C74.0842 91.6994 73.9377 91.9436 73.8281 92.2119C72.8142 95.2917 71.984 98.4167 71.3379 101.587C70.3336 102.125 69.2837 102.565 68.1885 102.905C68.1618 102.599 68.2107 102.306 68.335 102.026C68.4558 101.897 68.6023 101.848 68.7744 101.88C68.7646 101.666 68.8134 101.471 68.9209 101.294C69.0075 101.199 69.105 101.101 69.2139 101.001C68.9714 100.931 68.776 100.931 68.6279 101.001C70.258 95.0123 71.9914 89.0553 73.8281 83.1299C75.1841 82.293 76.5757 81.5117 78.0029 80.7861C77.8765 81.8531 77.6325 82.9273 77.2705 84.0088C77.3193 84.1065 77.3682 84.2041 77.417 84.3018C79.1609 83.638 80.699 82.6614 82.0313 81.3721C82.5333 80.6249 82.5088 79.9167 81.958 79.248C81.2744 79.1503 80.5909 79.1503 79.9072 79.248C76.6213 80.8296 73.3742 82.4653 70.166 84.1553C70.0579 83.8065 70.1312 83.5135 70.3857 83.2764C70.62 83.3156 70.8152 83.2667 70.9717 83.1299C71.67 82.805 72.3536 82.4388 73.0225 82.0312C73.1618 81.9261 73.1861 81.804 73.0957 81.665C72.8924 81.5106 72.6727 81.4863 72.4365 81.5918C71.7932 81.8924 71.2072 82.2586 70.6787 82.6904C70.6787 82.5927 70.6787 82.4952 70.6787 82.3975C70.7512 82.1071 70.8245 81.8142 70.8984 81.5186C71.3297 81.3394 71.6959 81.0709 71.9971 80.7129C71.7577 80.6405 71.5135 80.6162 71.2647 80.6396C71.1977 79.9188 71.4907 79.4061 72.1436 79.1016C74.3892 78.0031 76.684 77.0265 79.0283 76.1719C81.3839 75.3111 83.7765 75.1646 86.2061 75.7324C87.333 76.4253 87.748 77.4262 87.4512 78.7353C87.0312 80.7221 86.0301 82.3579 84.4482 83.6426C83.96 83.9843 83.4716 84.3262 82.9834 84.668C83.6738 84.8423 84.3086 85.1353 84.8877 85.5469C85.0462 85.7417 85.1439 85.9614 85.1807 86.2061Z" fill="#F8F9F9"/>
<path fill-rule="evenodd" clip-rule="evenodd" d="M95.1416 76.2451C96.1396 76.1443 96.75 76.5838 96.9727 77.5635C97.0704 78.0029 97.0704 78.4424 96.9727 78.8818C96.6867 77.6641 95.9788 77.2979 94.8486 77.7832C93.1389 80.0745 91.9915 82.638 91.4062 85.4736C90.9993 85.6472 90.7796 85.5007 90.7471 85.0342C90.9423 85.0342 91.1377 85.0342 91.333 85.0342C91.6266 83.2006 92.0416 81.3939 92.5781 79.6143C93.0894 78.2035 93.9438 77.0804 95.1416 76.2451Z" fill="#003DFF"/>
<path fill-rule="evenodd" clip-rule="evenodd" d="M62.4756 75.9522C62.7245 75.9287 62.9687 75.953 63.208 76.0254C61.8627 76.6364 60.5199 77.2466 59.1797 77.8565C59.0789 77.7346 59.1034 77.637 59.2529 77.5635C60.3451 77.0174 61.4194 76.4802 62.4756 75.9522Z" fill="#D3D3D3"/>
<path fill-rule="evenodd" clip-rule="evenodd" d="M35.9619 77.124C36.1414 77.2195 36.2391 77.3905 36.2549 77.6367C36.082 78.2518 35.8868 78.8622 35.6689 79.4678C35.5603 79.5831 35.4382 79.6806 35.3027 79.7607C35.4145 78.8621 35.6342 77.9832 35.9619 77.124Z" fill="#242424"/>
<path fill-rule="evenodd" clip-rule="evenodd" d="M86.3525 77.417C86.4984 77.4044 86.6205 77.4533 86.7188 77.5635C86.7907 79.9778 85.7653 81.7846 83.6426 82.9834C83.5449 82.8857 83.5449 82.7881 83.6426 82.6904C85.2089 81.2667 86.1122 79.5089 86.3525 77.417Z" fill="#003DFF"/>
<path fill-rule="evenodd" clip-rule="evenodd" d="M95.1416 78.4424C95.5985 78.3873 95.9404 78.5582 96.167 78.9551C96.3078 83.1041 95.3556 86.9859 93.3105 90.6006C92.1078 91.9431 91.4974 91.7234 91.4795 89.9414C91.8256 86.2371 92.7778 82.6972 94.3359 79.3213C94.6348 79.0474 94.9033 78.7544 95.1416 78.4424Z" fill="#003DFF"/>
<path fill-rule="evenodd" clip-rule="evenodd" d="M62.7686 81.2256C63.0305 81.1838 63.2747 81.2326 63.501 81.3721C63.4109 81.744 63.3132 82.1102 63.208 82.4707C62.4428 82.7842 61.6616 83.0527 60.8643 83.2764C60.1233 83.0622 59.9279 82.6472 60.2783 82.0313C61.1172 81.7373 61.9472 81.4686 62.7686 81.2256Z" fill="#F1F1F1"/>
<path fill-rule="evenodd" clip-rule="evenodd" d="M70.9717 83.1299C70.8176 83.1517 70.6711 83.1274 70.5322 83.0566C70.6424 82.9583 70.6913 82.8363 70.6787 82.6904C71.2072 82.2586 71.7932 81.8924 72.4365 81.5918C72.6727 81.4863 72.8924 81.5106 73.0957 81.665C73.1861 81.804 73.1618 81.9261 73.0225 82.0312C72.3536 82.4388 71.67 82.805 70.9717 83.1299Z" fill="#003DFF"/>
<path fill-rule="evenodd" clip-rule="evenodd" d="M51.0498 82.251C51.446 82.2334 51.5437 82.3799 51.3428 82.6904C51.1065 82.8262 50.8625 82.9484 50.6104 83.0566C49.4758 83.2137 48.3529 83.3602 47.2412 83.4961C48.4925 82.9888 49.7621 82.5737 51.0498 82.251Z" fill="#DBDBDB"/>
<path fill-rule="evenodd" clip-rule="evenodd" d="M38.5986 82.251C38.7527 82.2291 38.8992 82.2535 39.0381 82.3242C37.691 82.9892 36.4216 83.7706 35.2295 84.668C34.85 84.712 34.7278 84.5411 34.8633 84.1553C34.9853 84.0332 35.1075 83.9111 35.2295 83.7891C36.3388 83.2327 37.4619 82.72 38.5986 82.251Z" fill="#003DFF"/>
<path fill-rule="evenodd" clip-rule="evenodd" d="M58.96 82.6904C59.2437 82.9235 59.5367 83.1677 59.8389 83.4228C59.2211 83.6297 58.5864 83.7274 57.9346 83.7158C57.9397 83.027 58.2814 82.6853 58.96 82.6904Z" fill="#E0E0E0"/>
<path fill-rule="evenodd" clip-rule="evenodd" d="M99.9756 82.3975C100.136 82.8687 100.112 83.3569 99.9023 83.8623C99.7929 83.3607 99.8174 82.8725 99.9756 82.3975Z" fill="#2E2E2E"/>
<path fill-rule="evenodd" clip-rule="evenodd" d="M70.6787 82.3975C70.6787 82.4952 70.6787 82.5927 70.6787 82.6904C70.6913 82.8363 70.6424 82.9583 70.5322 83.0566C70.6711 83.1274 70.8176 83.1517 70.9717 83.1299C70.8152 83.2667 70.62 83.3156 70.3858 83.2764C70.3504 82.9251 70.4482 82.6321 70.6787 82.3975Z" fill="#969696"/>
<path fill-rule="evenodd" clip-rule="evenodd" d="M98.5107 83.2764C99.1932 83.2053 99.3885 83.4738 99.0967 84.082C98.9577 84.1724 98.8356 84.1481 98.7305 84.0088C98.5827 83.7854 98.5094 83.5412 98.5107 83.2764Z" fill="#003DFF"/>
<path fill-rule="evenodd" clip-rule="evenodd" d="M79.9072 84.5947C80.0533 84.5903 80.151 84.6636 80.2002 84.8145C79.8784 85.2844 79.4389 85.4309 78.8818 85.2539C79.2331 85.0307 79.5749 84.8109 79.9072 84.5947Z" fill="#003DFF"/>
<path fill-rule="evenodd" clip-rule="evenodd" d="M69.5068 94.9951C69.3744 94.8913 69.3256 94.7448 69.3604 94.5557C69.875 91.3501 70.6074 88.2007 71.5576 85.1074C71.8018 84.9854 72.0459 84.8632 72.29 84.7412C72.3388 84.8389 72.3878 84.9365 72.4365 85.0342C71.5053 88.3682 70.5289 91.6884 69.5068 94.9951Z" fill="#EBEBEB"/>
<path fill-rule="evenodd" clip-rule="evenodd" d="M87.8174 85.4736C88.0126 85.4736 88.2081 85.4736 88.4033 85.4736C88.4033 85.7178 88.4033 85.9619 88.4033 86.2061C87.8121 86.238 87.6167 85.9938 87.8174 85.4736Z" fill="#003DFF"/>
<path fill-rule="evenodd" clip-rule="evenodd" d="M57.0557 85.4736C57.3435 85.5393 57.3923 85.6857 57.2021 85.9131C57.0724 85.7922 57.0236 85.6458 57.0557 85.4736Z" fill="#A7A7A7"/>
<path fill-rule="evenodd" clip-rule="evenodd" d="M31.2744 86.0596C31.4465 86.0275 31.593 86.0763 31.7139 86.206C31.3797 86.3199 31.0623 86.4663 30.7617 86.6455C30.7373 86.5967 30.7129 86.5478 30.6885 86.499C30.8937 86.3495 31.0891 86.203 31.2744 86.0596Z" fill="#393939"/>
<path fill-rule="evenodd" clip-rule="evenodd" d="M48.8525 86.2061C48.681 86.3298 48.4856 86.4274 48.2666 86.499C48.111 86.3416 48.111 86.1951 48.2666 86.0596C48.4477 86.1688 48.6431 86.2176 48.8525 86.2061Z" fill="#868686"/>
<path fill-rule="evenodd" clip-rule="evenodd" d="M65.4053 86.0596C65.7732 86.1645 65.7732 86.3109 65.4053 86.499C65.2497 86.3635 65.2497 86.217 65.4053 86.0596Z" fill="#E2E2E2"/>
<path fill-rule="evenodd" clip-rule="evenodd" d="M48.8525 86.2061C48.6431 86.2176 48.4477 86.1688 48.2666 86.0596C48.111 86.1951 48.111 86.3416 48.2666 86.499C44.4665 87.4642 40.6579 88.4164 36.8408 89.3555C35.1853 89.7258 33.5251 90.0188 31.8604 90.2344C40.3324 87.8174 48.8041 85.4004 57.2754 82.9834C57.6419 83.13 57.7151 83.3741 57.4951 83.7158C56.9266 84.0245 56.3407 84.2931 55.7373 84.5215C54.5079 84.7283 53.2872 84.9725 52.0752 85.2539C51.0192 85.6468 49.9449 85.9642 48.8525 86.2061Z" fill="#E5E5E5"/>
<path fill-rule="evenodd" clip-rule="evenodd" d="M84.5947 86.6455C84.7538 86.6631 84.8515 86.7608 84.8877 86.9385C84.8788 87.2539 84.7323 87.4491 84.4482 87.5244C84.4893 87.1014 84.294 86.8816 83.8623 86.8652C84.1182 86.8137 84.3624 86.7404 84.5947 86.6455Z" fill="#003DFF"/>
<path fill-rule="evenodd" clip-rule="evenodd" d="M96.6064 86.9385C96.7786 86.9064 96.925 86.9552 97.0459 87.085C96.8186 87.2751 96.6721 87.2263 96.6064 86.9385Z" fill="#6F6F6F"/>
<path fill-rule="evenodd" clip-rule="evenodd" d="M85.3271 86.499C85.373 87.0179 85.3241 87.5061 85.1807 87.9639C85.0501 87.8524 84.9524 87.7059 84.8877 87.5244C84.9267 87.1077 85.0731 86.7659 85.3271 86.499Z" fill="#EFEFEF"/>
<path fill-rule="evenodd" clip-rule="evenodd" d="M85.1807 86.2061C85.2294 86.3038 85.2784 86.4013 85.3271 86.499C85.0731 86.7659 84.9267 87.1077 84.8877 87.5244C84.9524 87.7059 85.0501 87.8524 85.1807 87.9639C85.1807 88.0616 85.1807 88.1591 85.1807 88.2568C84.9687 87.9781 84.7245 87.7339 84.4482 87.5244C84.7323 87.4491 84.8788 87.2539 84.8877 86.9385C84.8515 86.7608 84.7538 86.6631 84.5947 86.6455C84.5947 86.499 84.5947 86.3525 84.5947 86.2061C84.79 86.2061 84.9854 86.2061 85.1807 86.2061Z" fill="#9F9F9F"/>
<path fill-rule="evenodd" clip-rule="evenodd" d="M65.5518 87.5244C65.7239 87.4923 65.8704 87.5411 65.9912 87.6709C65.7639 87.861 65.6174 87.8122 65.5518 87.5244Z" fill="#B7B7B7"/>
<path fill-rule="evenodd" clip-rule="evenodd" d="M112.72 87.3779C112.769 87.3779 112.817 87.3779 112.866 87.3779C113.112 87.6239 113.234 87.9168 113.232 88.2568C112.947 88.0279 112.776 87.7349 112.72 87.3779Z" fill="#898989"/>
<path fill-rule="evenodd" clip-rule="evenodd" d="M79.0283 87.9639C80.4186 87.6912 80.9313 88.2284 80.5664 89.5752C80.0049 90.7226 79.1503 91.5772 78.0029 92.1387C76.9525 92.7861 75.8783 93.3964 74.7803 93.9697C74.7315 93.9209 74.6826 93.872 74.6338 93.8232C75.0221 92.5145 75.3883 91.1962 75.7324 89.8681C76.7659 89.0959 77.8645 88.4612 79.0283 87.9639Z" fill="#003DFF"/>
<path fill-rule="evenodd" clip-rule="evenodd" d="M56.7627 88.1104C57.1692 88.1593 57.2667 88.3545 57.0557 88.6963C56.8197 88.5762 56.722 88.3808 56.7627 88.1104Z" fill="#CDCDCD"/>
<path fill-rule="evenodd" clip-rule="evenodd" d="M96.6064 88.2568C97.1591 88.5483 97.1591 88.8413 96.6064 89.1357C96.2404 88.858 96.2404 88.565 96.6064 88.2568Z" fill="#003DFF"/>
<path fill-rule="evenodd" clip-rule="evenodd" d="M83.8623 88.5498C84.1314 88.5702 84.1802 88.6679 84.0088 88.8428C83.8919 88.7758 83.8431 88.6781 83.8623 88.5498Z" fill="#414141"/>
<path fill-rule="evenodd" clip-rule="evenodd" d="M49.8779 88.8428C50.147 88.8631 50.1958 88.9608 50.0244 89.1357C49.9075 89.0688 49.8587 88.9711 49.8779 88.8428Z" fill="#7A7979"/>
<path fill-rule="evenodd" clip-rule="evenodd" d="M114.038 89.2822C113.94 89.2822 113.892 89.331 113.892 89.4287C113.568 89.221 113.446 88.928 113.525 88.5498C113.671 88.8168 113.842 89.061 114.038 89.2822Z" fill="#8C8C8C"/>
<path fill-rule="evenodd" clip-rule="evenodd" d="M58.96 88.8428C59.3133 88.8712 59.4598 89.0665 59.3994 89.4287C59.2529 89.4287 59.1064 89.4287 58.96 89.4287C58.96 89.2334 58.96 89.038 58.96 88.8428Z" fill="#CECECE"/>
<path fill-rule="evenodd" clip-rule="evenodd" d="M64.8193 88.6963C65.0461 88.7433 65.1438 88.8898 65.1123 89.1357C64.7098 89.1501 64.6122 89.0036 64.8193 88.6963Z" fill="#6B6B6B"/>
<path fill-rule="evenodd" clip-rule="evenodd" d="M80.9326 88.8428C81.2017 88.8631 81.2505 88.9608 81.0791 89.1357C80.9622 89.0688 80.9134 88.9711 80.9326 88.8428Z" fill="#747373"/>
<path fill-rule="evenodd" clip-rule="evenodd" d="M119.312 88.8428C119.681 88.7883 119.974 88.9103 120.19 89.209C117.697 90.432 115.207 91.6038 112.72 92.7246C114.907 91.3876 117.104 90.0936 119.312 88.8428Z" fill="#DFDFDF"/>
<path fill-rule="evenodd" clip-rule="evenodd" d="M82.1045 89.1357C82.3795 89.3055 82.4527 89.5497 82.3242 89.8682C82.1383 89.6624 82.0651 89.4183 82.1045 89.1357Z" fill="#2F2F2F"/>
<path fill-rule="evenodd" clip-rule="evenodd" d="M53.3936 89.5752C53.6203 89.6222 53.718 89.7687 53.6865 90.0146C53.284 90.029 53.1864 89.8825 53.3936 89.5752Z" fill="#6B6B6B"/>
<path fill-rule="evenodd" clip-rule="evenodd" d="M86.2061 89.7217C86.4752 89.742 86.5239 89.8397 86.3525 90.0146C86.2356 89.9477 86.1869 89.85 86.2061 89.7217Z" fill="#434343"/>
<path fill-rule="evenodd" clip-rule="evenodd" d="M92.3584 89.7217C92.7338 89.9411 92.7338 90.1853 92.3584 90.4541C92.1876 90.2099 92.1876 89.9657 92.3584 89.7217Z" fill="#A6A6A6"/>
<path fill-rule="evenodd" clip-rule="evenodd" d="M87.3779 91.4795C87.2455 91.5833 87.1967 91.7298 87.2314 91.9189C87.085 91.9189 86.9385 91.9189 86.792 91.9189C86.4245 91.3726 86.4732 90.8355 86.9385 90.3076C87.0593 90.1778 87.2058 90.129 87.3779 90.1611C87.3779 90.6006 87.3779 91.04 87.3779 91.4795Z" fill="#003DFF"/>
<path fill-rule="evenodd" clip-rule="evenodd" d="M83.6016 90.0041C83.7299 89.9849 83.8276 90.0337 83.8945 90.1505C83.5182 90.8049 83.2252 91.4884 83.0156 92.2013C82.8691 92.2013 82.7227 92.2013 82.5762 92.2013C82.6137 92.5546 82.4672 92.7988 82.1367 92.9338C82.3198 93.3071 82.6128 93.5024 83.0156 93.5197C82.9938 94.0504 82.8229 94.0993 82.5029 93.6662C82.3147 93.7321 82.1437 93.8298 81.9902 93.9591C81.8889 93.8822 81.8156 93.7845 81.7705 93.6662C81.7541 94.0979 81.5344 94.2931 81.1113 94.2521C81.0136 93.8614 80.9161 93.4709 80.8184 93.0802C80.3021 93.0174 79.8627 92.7977 79.5 92.4211C81.3029 92.4088 82.6701 91.6031 83.6016 90.0041Z" fill="#003DFF"/>
<path fill-rule="evenodd" clip-rule="evenodd" d="M111.694 95.4346C111.683 95.6177 111.585 95.7397 111.401 95.8008C111.536 95.8415 111.633 95.9147 111.694 96.0205C111.095 96.5257 110.705 96.4037 110.522 95.6543C110.62 95.5566 110.718 95.459 110.815 95.3613C113.231 94.178 115.623 92.9574 117.993 91.6992C118.792 91.2731 119.622 90.9801 120.483 90.8203C117.532 92.347 114.602 93.8851 111.694 95.4346Z" fill="#DADADA"/>
<path fill-rule="evenodd" clip-rule="evenodd" d="M59.1064 91.7724C59.2147 91.7533 59.3124 91.7777 59.3994 91.8457C59.081 92.5135 58.9834 92.489 59.1064 91.7724Z" fill="#DCDCDC"/>
<path fill-rule="evenodd" clip-rule="evenodd" d="M87.3779 91.4795C87.5834 92.2028 87.388 92.3493 86.792 91.9189C86.9385 91.9189 87.085 91.9189 87.2314 91.9189C87.1967 91.7298 87.2455 91.5833 87.3779 91.4795Z" fill="#8C8C8C"/>
<path fill-rule="evenodd" clip-rule="evenodd" d="M80.0537 92.2119C80.9533 92.1535 81.0022 92.2999 80.2002 92.6514C79.9044 92.5586 79.8555 92.4121 80.0537 92.2119Z" fill="#494848"/>
<path fill-rule="evenodd" clip-rule="evenodd" d="M56.0303 92.3584C56.2994 92.3788 56.3481 92.4765 56.1768 92.6514C56.0599 92.5844 56.0111 92.4867 56.0303 92.3584Z" fill="#9C9C9C"/>
<path fill-rule="evenodd" clip-rule="evenodd" d="M47.0947 93.3838C47.5342 93.335 47.7294 93.5303 47.6807 93.9697C47.1863 94.0088 46.7224 94.1553 46.2891 94.4092C46.2158 94.3604 46.1426 94.3115 46.0693 94.2627C46.414 93.9663 46.7558 93.6734 47.0947 93.3838Z" fill="#D1D1D1"/>
<path fill-rule="evenodd" clip-rule="evenodd" d="M59.5459 94.2627C59.6924 94.2627 59.8389 94.2627 59.9854 94.2627C60.0261 94.5331 59.9284 94.7285 59.6924 94.8486C59.5563 94.6745 59.5075 94.4792 59.5459 94.2627Z" fill="#D2D2D2"/>
<path fill-rule="evenodd" clip-rule="evenodd" d="M64.9658 94.2627C65.3249 94.5132 65.3249 94.8062 64.9658 95.1416C64.8165 94.8545 64.8165 94.5615 64.9658 94.2627Z" fill="#C0C0C0"/>
<path fill-rule="evenodd" clip-rule="evenodd" d="M81.665 93.8232C81.7934 93.8041 81.8911 93.8528 81.958 93.9697C81.1964 95.1951 80.2198 96.196 79.0283 96.9727C78.7238 97.091 78.4308 97.0666 78.1494 96.8994C78.3806 96.7825 78.6246 96.7093 78.8818 96.6797C79.939 95.8424 80.8667 94.8902 81.665 93.8232Z" fill="#003DFF"/>
<path fill-rule="evenodd" clip-rule="evenodd" d="M95.5811 94.5557C95.983 94.6395 96.105 94.8835 95.9473 95.2881C95.7463 95.0815 95.6243 94.8374 95.5811 94.5557Z" fill="#747474"/>
<path fill-rule="evenodd" clip-rule="evenodd" d="M55.0049 94.5557C55.5113 94.5801 55.5601 94.7266 55.1514 94.9951C55.0216 94.8743 54.9728 94.7278 55.0049 94.5557Z" fill="#B0B0B0"/>
<path fill-rule="evenodd" clip-rule="evenodd" d="M86.0596 94.9951C86.3287 95.0155 86.3774 95.1132 86.2061 95.2881C86.0892 95.2211 86.0404 95.1234 86.0596 94.9951Z" fill="#727171"/>
<path fill-rule="evenodd" clip-rule="evenodd" d="M93.5303 94.9951C93.7994 95.0155 93.8481 95.1132 93.6768 95.2881C93.5599 95.2211 93.5111 95.1234 93.5303 94.9951Z" fill="#3F3F3F"/>
<path fill-rule="evenodd" clip-rule="evenodd" d="M97.4854 94.9951C97.7544 95.0155 97.8032 95.1132 97.6318 95.2881C97.5149 95.2211 97.4662 95.1234 97.4854 94.9951Z" fill="#878787"/>
<path fill-rule="evenodd" clip-rule="evenodd" d="M90.7471 94.8487C90.9661 94.8362 91.1125 94.9338 91.1865 95.1416C91.1167 95.3512 91.0191 95.5465 90.8936 95.7276C90.9205 95.447 90.8716 95.1541 90.7471 94.8487Z" fill="#979797"/>
<path fill-rule="evenodd" clip-rule="evenodd" d="M69.3604 94.5557C69.3256 94.7448 69.3744 94.8913 69.5068 94.9951C69.2871 95.776 69.0674 96.5572 68.8477 97.3389C68.8586 96.3702 69.0294 95.4425 69.3604 94.5557Z" fill="#B6B6B6"/>
<path fill-rule="evenodd" clip-rule="evenodd" d="M111.694 95.4346C111.8 95.4958 111.873 95.5934 111.914 95.7275C112.182 95.5286 112.451 95.4797 112.72 95.5811C112.387 95.7568 112.045 95.9033 111.694 96.0205C111.633 95.9147 111.536 95.8415 111.401 95.8008C111.585 95.7397 111.683 95.6177 111.694 95.4346Z" fill="#908F8F"/>
<path fill-rule="evenodd" clip-rule="evenodd" d="M85.7666 96.3135C85.6689 96.3135 85.5713 96.3135 85.4736 96.3135C85.4439 96.0873 85.3462 95.8919 85.1807 95.7275C85.3015 95.5977 85.448 95.549 85.6201 95.581C85.6005 95.8435 85.6493 96.0876 85.7666 96.3135Z" fill="#888787"/>
<path fill-rule="evenodd" clip-rule="evenodd" d="M85.4736 96.3135C85.5713 96.3135 85.6689 96.3135 85.7666 96.3135C85.899 96.4173 85.9478 96.5638 85.9131 96.7529C85.7666 96.7529 85.6201 96.7529 85.4736 96.7529C85.4736 96.6064 85.4736 96.46 85.4736 96.3135Z" fill="#003DFF"/>
<path fill-rule="evenodd" clip-rule="evenodd" d="M89.1357 96.3135C89.7346 96.2722 89.8078 96.3699 89.3555 96.6064C89.2046 96.5572 89.1314 96.4595 89.1357 96.3135Z" fill="#333232"/>
<path fill-rule="evenodd" clip-rule="evenodd" d="M92.9443 97.0459C92.7674 96.9384 92.5721 96.8896 92.3584 96.8994C92.6795 96.7091 92.8748 96.4162 92.9443 96.0205C93.0838 96.2468 93.1326 96.491 93.0908 96.7529C93.2629 96.7208 93.4094 96.7696 93.5303 96.8994C93.3245 96.9375 93.1292 96.9863 92.9443 97.0459Z" fill="#747373"/>
<path fill-rule="evenodd" clip-rule="evenodd" d="M92.3584 96.8994C92.5721 96.8896 92.7674 96.9384 92.9443 97.0459C93.1308 97.1304 93.1308 97.228 92.9443 97.3389C92.8282 97.2757 92.706 97.2268 92.5781 97.1924C92.274 97.4463 91.9323 97.6415 91.5527 97.7783C91.3146 97.6628 91.0948 97.5163 90.8936 97.3389C91.3953 97.2232 91.8835 97.0767 92.3584 96.8994Z" fill="#003DFF"/>
<path fill-rule="evenodd" clip-rule="evenodd" d="M87.085 97.0459C87.6243 97.0217 88.1613 97.046 88.6963 97.1191C88.9058 97.3945 88.8568 97.6143 88.5498 97.7783C88.0727 97.6244 87.5845 97.5267 87.085 97.4854C87.085 97.3389 87.085 97.1924 87.085 97.0459Z" fill="#003DFF"/>
<path fill-rule="evenodd" clip-rule="evenodd" d="M108.765 97.4854C108.524 97.4883 108.329 97.3906 108.179 97.1924C108.119 97.3472 108.119 97.5426 108.179 97.7783C106.713 98.5329 105.297 99.3873 103.931 100.342C100.712 101.488 97.5873 102.83 94.5557 104.37C94.5557 104.321 94.5557 104.272 94.5557 104.224C99.7704 101.252 104.995 98.4202 110.229 95.7275C110.515 95.9537 110.588 96.2467 110.449 96.6064C109.879 96.8858 109.318 97.1788 108.765 97.4854Z" fill="#E9E9E9"/>
<path fill-rule="evenodd" clip-rule="evenodd" d="M108.765 97.4854C108.593 97.6091 108.398 97.7067 108.179 97.7783C108.119 97.5426 108.119 97.3472 108.179 97.1924C108.329 97.3906 108.524 97.4883 108.765 97.4854Z" fill="#7C7C7C"/>
<path fill-rule="evenodd" clip-rule="evenodd" d="M34.9365 97.3389C35.1555 97.3264 35.302 97.424 35.376 97.6319C35.0982 97.7987 34.9518 97.7011 34.9365 97.3389Z" fill="#D1D1D1"/>
<path fill-rule="evenodd" clip-rule="evenodd" d="M116.089 96.167C116.275 96.2515 116.275 96.3491 116.089 96.46C113.659 97.7389 111.169 98.7154 108.618 99.3896C111.099 98.2708 113.589 97.1966 116.089 96.167Z" fill="#D0D0D0"/>
<path fill-rule="evenodd" clip-rule="evenodd" d="M44.3115 97.9248C44.8179 97.9493 44.8667 98.0958 44.458 98.3643C44.3282 98.2434 44.2794 98.0969 44.3115 97.9248Z" fill="#D0D0D0"/>
<path fill-rule="evenodd" clip-rule="evenodd" d="M74.3408 97.9248C75.0098 97.8917 75.0586 98.1114 74.4873 98.584C74.1249 98.8915 73.7342 98.9647 73.3154 98.8037C73.6997 98.5417 74.0414 98.2487 74.3408 97.9248Z" fill="#003DFF"/>
<path fill-rule="evenodd" clip-rule="evenodd" d="M83.5693 96.46C83.7195 96.5181 83.7439 96.6157 83.6426 96.7529C79.0808 100.706 73.8318 103.27 67.8955 104.443C72.5549 102.873 76.9982 100.823 81.2256 98.291C82.0436 97.7131 82.8248 97.1027 83.5693 96.46Z" fill="#E0E0E0"/>
<path fill-rule="evenodd" clip-rule="evenodd" d="M41.3818 98.5107C41.554 98.4787 41.7004 98.5274 41.8213 98.6572C41.4832 99.0245 41.0925 99.1222 40.6494 98.9502C40.8904 98.775 41.1344 98.6285 41.3818 98.5107Z" fill="#B3B3B3"/>
<path fill-rule="evenodd" clip-rule="evenodd" d="M83.5693 98.8037C83.7158 98.8037 83.8623 98.8037 84.0088 98.8037C84.0337 98.9974 83.9849 99.1683 83.8623 99.3164C82.4939 100.196 81.0779 101.002 79.6143 101.733C79.4391 101.683 79.4391 101.609 79.6143 101.514C80.9931 100.679 82.3115 99.7761 83.5693 98.8037Z" fill="#D8D8D8"/>
<path fill-rule="evenodd" clip-rule="evenodd" d="M56.6162 99.2432C56.7627 99.2432 56.9092 99.2432 57.0557 99.2432C57.0557 99.4384 57.0557 99.6338 57.0557 99.8291C56.9092 99.8291 56.7627 99.8291 56.6162 99.8291C56.6162 99.6338 56.6162 99.4384 56.6162 99.2432Z" fill="#C1C1C1"/>
<path fill-rule="evenodd" clip-rule="evenodd" d="M61.1572 99.8291C61.3762 99.8167 61.5227 99.9142 61.5967 100.122C61.3189 100.289 61.1725 100.191 61.1572 99.8291Z" fill="#DADBDB"/>
<path fill-rule="evenodd" clip-rule="evenodd" d="M86.2061 99.8291C86.4549 99.8057 86.6991 99.83 86.9385 99.9024C86.3909 100.303 85.805 100.474 85.1807 100.415C85.5125 100.177 85.8543 99.9813 86.2061 99.8291Z" fill="#CCCCCC"/>
<path fill-rule="evenodd" clip-rule="evenodd" d="M50.6104 100.269C50.8592 100.245 51.1034 100.269 51.3428 100.342C50.8979 100.655 50.4097 100.801 49.8779 100.781C50.0911 100.543 50.3353 100.372 50.6104 100.269Z" fill="#B5B5B5"/>
<path fill-rule="evenodd" clip-rule="evenodd" d="M67.3096 100.122C67.6651 100.236 67.6651 100.407 67.3096 100.635C66.7979 100.897 66.2607 101.043 65.6982 101.074C66.2011 100.677 66.7383 100.36 67.3096 100.122Z" fill="#CCCCCC"/>
<path fill-rule="evenodd" clip-rule="evenodd" d="M57.7881 101.001C58.0572 101.021 58.106 101.119 57.9346 101.294C57.8177 101.227 57.7689 101.129 57.7881 101.001Z" fill="#BCBCBC"/>
<path fill-rule="evenodd" clip-rule="evenodd" d="M70.8252 101.147C71.0943 101.168 71.1431 101.266 70.9717 101.44C70.8548 101.373 70.806 101.276 70.8252 101.147Z" fill="#222222"/>
<path fill-rule="evenodd" clip-rule="evenodd" d="M96.0205 100.415C96.1488 100.396 96.2465 100.445 96.3135 100.562C93.3608 101.765 90.4311 103.01 87.5244 104.297C88.8486 103.44 90.2158 102.658 91.626 101.953C93.0996 101.421 94.5645 100.909 96.0205 100.415Z" fill="#D8D8D8"/>
<path fill-rule="evenodd" clip-rule="evenodd" d="M108.179 100.855C108.428 100.831 108.672 100.855 108.911 100.928C108.554 101.235 108.164 101.308 107.739 101.147C107.901 101.048 108.047 100.951 108.179 100.855Z" fill="#CBCBCB"/>
<path fill-rule="evenodd" clip-rule="evenodd" d="M58.374 102.466C58.5693 102.466 58.7647 102.466 58.96 102.466C58.8514 103.199 58.6562 103.199 58.374 102.466Z" fill="#BBBBBB"/>
<path fill-rule="evenodd" clip-rule="evenodd" d="M84.8877 102.759C85.0888 102.736 85.2842 102.76 85.4736 102.832C83.9246 103.608 82.3622 104.292 80.7861 104.883C82.0997 104.048 83.4669 103.34 84.8877 102.759Z" fill="#CDCDCD"/>
<path fill-rule="evenodd" clip-rule="evenodd" d="M63.3545 104.077C63.6236 104.098 63.6724 104.195 63.501 104.37C63.3841 104.303 63.3353 104.205 63.3545 104.077Z" fill="#C4C5C5"/>
<path fill-rule="evenodd" clip-rule="evenodd" d="M94.5557 104.224C94.5557 104.272 94.5557 104.321 94.5557 104.37C93.722 104.909 92.8431 105.324 91.9189 105.615C92.7826 105.11 93.6615 104.646 94.5557 104.224Z" fill="#A4A4A4"/>
<path fill-rule="evenodd" clip-rule="evenodd" d="M71.4111 105.981C72.1569 106.081 72.1324 106.228 71.3379 106.421C71.2646 106.372 71.1914 106.323 71.1182 106.274C71.227 106.175 71.3246 106.077 71.4111 105.981Z" fill="#BFBFBF"/>
<path fill-rule="evenodd" clip-rule="evenodd" d="M61.3037 106.714C61.5728 106.734 61.6216 106.832 61.4502 107.007C61.3333 106.94 61.2845 106.842 61.3037 106.714Z" fill="#A4A4A4"/>
<path fill-rule="evenodd" clip-rule="evenodd" d="M100.708 105.981C100.862 105.96 101.009 105.984 101.147 106.055C98.8184 107.098 96.5234 108.172 94.2627 109.277C96.2416 107.824 98.39 106.725 100.708 105.981Z" fill="#D6D6D6"/>
<path fill-rule="evenodd" clip-rule="evenodd" d="M65.5518 107.446C65.8396 107.512 65.8884 107.658 65.6982 107.886C65.5684 107.765 65.5197 107.618 65.5518 107.446Z" fill="#D4D4D4"/>
</g>
<defs>
<clipPath id="clip0_113_4092">
<rect width="150" height="150" fill="white"/>
</clipPath>
</defs>
</svg>
